<?xml version="1.0" standalone="no"?>
<!DOCTYPE svg PUBLIC "-//W3C//DTD SVG 20010904//EN"
 "http://www.w3.org/TR/2001/REC-SVG-20010904/DTD/svg10.dtd">
<svg version="1.0" xmlns="http://www.w3.org/2000/svg"
 width="2048.000000pt" height="907.000000pt" viewBox="0 0 2048.000000 907.000000"
 preserveAspectRatio="xMidYMid meet">

<g transform="translate(0.000000,907.000000) scale(0.100000,-0.100000)"
fill="#000000" stroke="none">
<path d="M0 4535 l0 -4535 5341 0 c5083 0 5341 1 5334 17 -4 10 -11 36 -17 57
-5 22 -20 50 -34 63 -16 15 -24 30 -20 40 4 8 1 22 -5 29 -6 8 -9 25 -7 39 3
14 1 28 -3 31 -5 3 -9 -2 -9 -10 0 -21 -16 -21 -24 0 -9 22 -8 24 9 24 22 0
18 14 -7 25 -18 8 -23 18 -22 42 2 24 -7 42 -32 68 -36 39 -44 61 -18 51 9 -3
18 -6 20 -6 2 0 4 -10 4 -21 0 -17 3 -19 14 -10 7 6 21 9 30 5 11 -4 16 -1 16
11 0 9 -5 13 -10 10 -31 -19 -66 25 -40 51 18 18 -11 62 -40 61 -20 -2 -25 3
-25 23 0 18 6 26 23 28 17 3 22 -2 22 -17 0 -17 5 -20 32 -17 18 2 34 9 36 16
3 9 -1 11 -12 7 -35 -14 -62 23 -36 49 16 16 -11 66 -32 60 -24 -6 -53 18 -45
38 4 10 18 16 38 16 23 0 30 4 25 15 -3 8 3 19 12 25 16 9 16 11 0 24 -10 7
-18 18 -18 24 0 6 -12 12 -27 14 -18 2 -29 10 -31 22 -5 22 16 38 41 30 11 -4
17 0 17 11 0 11 -6 15 -17 11 -25 -8 -46 8 -41 30 5 28 48 31 55 4 4 -13 11
-19 20 -16 8 3 21 6 29 6 8 0 14 5 14 11 0 6 -7 9 -15 5 -22 -8 -45 4 -45 24
0 23 24 42 44 34 10 -4 16 -1 16 8 0 8 -10 14 -27 13 -23 0 -28 4 -28 25 0 21
5 25 28 25 16 -1 27 5 27 13 0 7 -8 12 -17 11 -10 -1 -24 -1 -30 0 -15 1 -18
51 -3 51 6 0 10 7 10 15 0 8 -4 15 -10 15 -14 0 -13 33 2 48 9 9 9 15 0 24
-15 15 -16 45 -2 53 16 10 50 -5 50 -21 0 -8 5 -14 11 -14 6 0 8 6 5 13 -3 6
-9 20 -12 30 -4 10 -14 17 -23 16 -33 -3 -41 2 -41 26 0 25 8 29 43 26 10 -2
17 4 17 14 0 11 -8 15 -27 13 -24 -3 -28 1 -28 22 0 31 34 41 42 12 4 -15 13
-20 39 -19 32 1 44 21 13 23 -35 2 -39 5 -39 23 0 24 18 37 44 32 11 -1 17 2
14 10 -3 8 -15 14 -29 14 -26 0 -40 32 -18 45 16 11 39 1 39 -16 0 -8 7 -14
15 -14 8 0 15 5 15 10 0 6 -5 10 -11 10 -6 0 -9 12 -7 28 4 35 46 45 55 13 3
-12 9 -21 14 -21 13 0 11 17 -4 41 -10 17 -9 22 8 35 22 17 34 14 49 -9 8 -12
8 -22 -1 -36 -9 -15 -8 -22 5 -35 14 -13 14 -20 4 -36 -10 -16 -10 -24 0 -40
10 -16 10 -24 -1 -42 -10 -16 -10 -23 -2 -26 6 -2 11 -10 11 -18 0 -8 10 -14
23 -14 30 0 49 37 33 62 -8 13 -8 23 2 38 10 16 10 24 0 40 -10 16 -10 24 0
41 10 15 10 24 2 34 -16 19 6 59 27 51 8 -3 17 -6 19 -6 2 0 4 -7 4 -15 0 -8
7 -15 15 -15 18 0 19 12 4 27 -16 16 -3 43 21 43 21 0 29 -33 10 -45 -6 -4 -8
-11 -5 -16 10 -15 22 -10 28 11 7 28 45 26 56 -3 5 -12 5 -23 0 -25 -12 -5
-12 -32 0 -32 5 0 11 9 14 20 6 24 42 27 51 5 3 -9 0 -25 -7 -37 -9 -16 -9
-22 1 -25 15 -6 16 -35 0 -51 -9 -9 -7 -16 7 -32 15 -16 16 -22 5 -35 -11 -13
-11 -20 0 -40 10 -19 10 -27 1 -39 -10 -11 -9 -19 1 -35 10 -17 10 -25 0 -41
-10 -16 -10 -24 0 -40 10 -15 10 -25 2 -38 -8 -12 -8 -22 0 -35 8 -12 8 -22
-2 -37 -10 -16 -10 -24 0 -40 10 -16 10 -24 1 -40 -8 -12 -9 -21 -3 -25 13 -8
13 -52 0 -60 -6 -4 -5 -13 3 -25 9 -15 9 -25 1 -38 -9 -13 -8 -23 4 -40 13
-20 13 -24 -1 -40 -15 -17 -15 -20 -1 -34 13 -12 14 -20 5 -37 -9 -15 -8 -25
1 -40 10 -16 9 -23 -5 -39 -16 -17 -16 -19 1 -35 14 -14 14 -21 4 -37 -9 -16
-10 -24 0 -39 14 -23 -4 -51 -33 -51 -11 0 -19 -5 -19 -11 0 -6 8 -8 19 -4 25
8 48 -21 34 -43 -6 -10 -18 -17 -27 -17 -21 0 -16 -19 6 -20 25 -2 31 -10 23
-35 -5 -15 -13 -20 -26 -17 -12 3 -19 0 -19 -8 0 -8 10 -15 23 -17 14 -2 23
-11 25 -25 3 -22 -6 -28 -35 -24 -7 1 -13 -5 -13 -13 0 -10 8 -15 23 -13 17 2
22 -3 22 -23 0 -18 -6 -26 -22 -28 -13 -2 -23 -9 -23 -17 0 -7 7 -11 18 -9 9
2 23 0 31 -5 21 -14 -4 -54 -30 -46 -14 5 -19 2 -19 -10 0 -11 5 -15 14 -12 8
3 21 0 31 -6 22 -17 9 -47 -21 -47 -34 0 -30 -16 6 -24 16 -3 30 -12 30 -20 0
-20 -25 -37 -44 -30 -11 4 -16 1 -16 -11 0 -12 5 -15 19 -10 11 3 22 1 26 -5
4 -6 72 -10 185 -10 162 0 179 2 184 18 9 31 4 347 -6 353 -5 3 -4 16 3 32 10
21 9 30 -2 44 -8 9 -9 14 -4 11 6 -4 10 36 10 112 0 65 -2 117 -5 115 -3 -2
-5 14 -5 35 0 21 2 37 5 35 5 -3 4 84 -4 605 -3 201 -1 289 7 298 6 8 11 25
12 39 0 29 34 57 42 36 6 -17 23 -16 23 1 0 9 17 16 49 20 50 7 81 1 81 -15 0
-5 5 -9 11 -9 5 0 7 5 4 10 -3 6 -2 10 3 10 6 0 12 -7 16 -15 3 -8 14 -15 25
-15 11 0 23 -5 27 -12 4 -7 3 -8 -4 -4 -7 4 -12 1 -12 -8 0 -9 7 -16 15 -16
18 0 17 8 20 -123 1 -59 5 -110 8 -113 3 -3 1 -18 -3 -34 -4 -16 -6 -30 -4
-33 11 -10 13 -52 3 -63 -6 -7 -6 -15 -1 -18 5 -3 9 -155 9 -339 0 -184 2
-338 4 -343 2 -5 4 -143 4 -306 0 -192 4 -298 10 -298 25 -1 174 76 170 88 -2
7 1 23 7 37 8 18 8 32 1 48 -28 58 -35 90 -29 127 7 46 59 136 87 151 28 14
27 131 -1 177 -11 18 -20 43 -20 56 0 13 -4 36 -10 52 -5 16 -11 144 -14 284
-5 261 -12 347 -27 366 -5 6 -5 14 1 20 13 13 19 358 7 419 -5 28 -15 61 -22
75 -13 25 -25 68 -50 185 -8 33 -19 80 -25 105 -18 70 -20 78 -34 190 -32 242
-28 395 13 540 25 84 41 164 41 198 0 16 21 68 46 117 26 50 61 120 80 156 54
109 152 218 309 344 33 27 82 68 108 92 44 38 178 113 203 113 35 0 277 84
339 118 45 24 50 31 58 72 4 25 21 99 36 165 16 66 32 143 35 170 9 62 35 145
46 145 19 0 19 -19 1 -56 -29 -61 -34 -113 -16 -164 11 -29 15 -72 14 -124 -1
-53 2 -81 9 -84 7 -2 12 -21 12 -43 0 -24 5 -39 13 -39 9 0 8 -3 -2 -9 -8 -5
-9 -11 -3 -15 6 -3 33 12 61 34 45 36 91 54 77 31 -4 -5 -2 -11 4 -13 6 -2
-24 -23 -65 -48 -122 -71 -250 -216 -300 -338 -9 -20 -39 -58 -67 -84 -28 -27
-48 -48 -44 -48 29 0 145 113 180 175 17 30 17 30 11 -40 -3 -38 -14 -104 -23
-145 -11 -49 -17 -117 -17 -193 1 -112 2 -118 26 -143 45 -44 87 -42 250 11
218 72 283 108 363 201 36 43 66 83 66 91 0 7 3 13 8 13 29 -1 60 -64 41 -86
-8 -10 -6 -21 11 -44 23 -32 22 -32 61 -34 19 -1 25 2 21 12 -3 8 1 18 9 23
12 7 12 9 -1 9 -9 0 -7 6 8 16 13 9 21 22 18 30 -3 8 3 22 14 31 11 10 20 22
20 28 0 5 20 30 45 55 24 25 44 50 45 56 0 15 118 124 133 124 15 0 50 45 53
68 2 10 11 22 20 27 25 14 44 36 116 136 99 135 147 187 168 182 10 -3 21 0
24 5 8 13 53 -8 60 -28 4 -8 9 -22 12 -30 5 -13 4 -13 -5 0 -9 13 -11 12 -11
-4 0 -11 -12 -32 -27 -48 -32 -34 -26 -47 8 -16 14 13 66 59 117 102 50 44 95
88 98 99 3 11 12 16 20 13 9 -3 12 -1 9 4 -6 10 58 94 145 189 22 25 40 48 40
53 0 4 7 8 15 8 8 0 15 9 15 21 0 11 4 18 9 15 21 -13 -9 -71 -78 -150 -41
-47 -80 -86 -87 -86 -6 0 -14 -10 -18 -22 -9 -34 -7 -45 5 -25 12 21 29 23 29
3 0 -20 34 -9 67 22 15 15 34 27 41 28 8 2 20 11 27 21 7 10 16 15 20 12 3 -4
20 7 36 22 17 16 36 29 42 29 6 0 21 10 34 22 13 12 23 17 23 12 0 -18 -94
-87 -104 -77 -3 3 -6 -3 -6 -15 0 -12 -4 -22 -9 -22 -5 0 -21 -16 -36 -36 -23
-30 -25 -38 -14 -49 20 -18 100 -29 97 -13 -4 14 32 24 41 11 3 -6 21 -13 39
-16 29 -6 33 -4 28 11 -5 15 0 18 29 20 31 2 35 0 32 -20 -2 -19 3 -23 23 -23
14 0 29 -6 33 -13 5 -7 12 -10 17 -7 5 3 15 -3 22 -14 7 -12 17 -17 23 -12 20
16 65 22 65 9 0 -9 3 -8 10 2 8 12 10 11 10 -7 0 -13 5 -23 12 -23 6 0 4 -6
-7 -13 -11 -9 -14 -16 -7 -21 6 -3 13 -2 17 4 3 5 18 10 33 10 24 0 25 -1 7
-13 -13 -10 -15 -16 -6 -21 7 -4 9 -16 5 -28 -5 -17 -3 -18 14 -9 25 13 43 14
22 1 -12 -7 -11 -10 5 -15 11 -4 29 -11 40 -17 16 -8 18 -8 8 3 -20 20 -15 31
7 19 14 -7 20 -7 20 0 0 16 21 12 36 -8 9 -11 13 -13 14 -4 0 9 7 11 20 7 11
-4 20 -2 20 4 0 6 11 11 24 11 13 0 26 6 29 13 4 9 7 9 18 -1 7 -6 31 -13 54
-13 22 -1 32 -3 23 -6 -10 -2 -18 -10 -18 -18 0 -7 -12 -16 -26 -19 -18 -5
-24 -12 -20 -22 7 -20 -23 -31 -35 -13 -7 11 -13 9 -29 -11 -19 -24 -19 -25 0
-28 12 -2 17 -9 13 -18 -3 -8 0 -14 7 -14 6 0 8 -4 5 -10 -9 -15 -25 -12 -25
5 0 18 -16 20 -26 4 -4 -7 -9 -7 -13 -1 -3 5 -15 6 -26 1 -19 -7 -19 -8 2 -8
12 -1 26 -8 31 -18 6 -9 16 -14 25 -10 23 9 30 -9 11 -28 -19 -19 -16 -24 21
-31 31 -6 59 -29 50 -43 -3 -5 5 -17 17 -25 27 -19 22 -20 -21 -5 -18 6 -30
16 -28 23 6 15 -20 39 -28 26 -3 -6 -11 -10 -17 -10 -7 0 -6 6 2 15 8 10 9 15
2 15 -6 0 -20 10 -32 22 -11 12 -22 19 -25 16 -3 -3 2 -14 12 -24 10 -9 23
-27 28 -38 6 -12 19 -20 28 -18 18 3 24 -23 8 -32 -13 -9 -1 -46 15 -46 7 0
16 5 19 10 3 6 -1 10 -9 10 -21 0 -30 19 -13 26 15 6 56 -28 74 -60 13 -24 -4
-87 -18 -65 -6 10 -10 10 -23 0 -21 -17 -21 -35 0 -27 13 5 15 1 12 -25 -4
-27 -3 -30 16 -24 12 4 33 9 49 12 15 3 27 10 27 17 0 6 6 0 14 -14 15 -29 10
-49 -7 -26 -9 11 -16 13 -27 6 -8 -5 -10 -10 -5 -10 6 0 10 -16 11 -35 1 -39
-1 -41 -21 -22 -44 39 -45 39 -45 12 0 -16 -6 -25 -15 -25 -22 0 -18 -18 5
-25 13 -4 20 -15 20 -31 0 -13 5 -24 10 -24 6 0 10 6 10 14 0 12 4 12 29 0 25
-12 33 -13 51 -2 11 7 20 20 19 28 -3 37 3 49 33 59 28 10 33 9 47 -11 21 -29
20 -43 -1 -42 -9 1 -14 -4 -12 -11 5 -13 -19 -37 -32 -33 -5 1 -28 -16 -52
-40 -24 -23 -49 -42 -57 -42 -8 0 -15 -6 -15 -14 0 -8 -23 -36 -51 -63 -29
-26 -59 -57 -68 -67 -9 -11 -26 -29 -39 -41 -12 -12 -22 -27 -22 -34 0 -6 -7
-11 -15 -11 -9 0 -15 -6 -14 -12 3 -18 -11 -48 -33 -70 -10 -10 -18 -26 -18
-37 0 -10 -7 -24 -15 -31 -9 -7 -14 -19 -11 -26 3 -7 1 -16 -4 -19 -6 -4 -10
-21 -10 -39 0 -18 -3 -36 -7 -40 -27 -27 -45 -185 -44 -374 1 -68 -2 -101 -9
-97 -5 3 -10 17 -10 30 0 13 -6 26 -12 29 -10 5 -10 7 -1 12 16 7 17 44 2 44
-7 0 -9 10 -4 28 10 39 13 382 3 376 -11 -7 -10 4 7 61 10 32 12 51 5 53 -16
6 -12 22 5 22 8 0 15 9 15 21 0 11 4 17 10 14 7 -4 9 3 6 19 -3 14 0 28 5 31
5 4 9 11 9 16 0 9 -17 7 -57 -8 -7 -3 -13 -1 -13 4 0 5 16 15 35 23 38 15 41
20 23 38 -9 9 -7 13 6 18 9 3 21 15 27 26 9 17 8 18 -9 9 -11 -6 -29 -22 -40
-36 -24 -30 -36 -32 -29 -5 5 19 -3 24 -31 21 -8 -1 -20 3 -28 10 -11 9 -14 8
-14 -5 0 -9 -6 -19 -14 -22 -8 -3 -12 -14 -8 -27 6 -27 -2 -20 -23 18 -15 29
-15 29 -21 8 -4 -13 -13 -23 -21 -23 -10 0 -14 7 -10 20 3 13 -2 25 -16 35
-24 17 -35 12 -19 -8 6 -7 9 -22 6 -34 -5 -18 -10 -20 -37 -12 -35 10 -49 3
-26 -14 9 -7 14 -18 12 -24 -6 -18 26 -16 33 2 8 19 24 20 24 1 0 -16 -64 -41
-80 -31 -13 8 -70 -16 -70 -30 0 -6 6 -17 13 -24 10 -11 7 -13 -15 -9 -24 5
-28 2 -28 -18 0 -13 5 -24 10 -24 6 0 10 -4 10 -10 0 -13 -33 -13 -47 1 -8 8
-13 7 -18 -1 -4 -7 -1 -17 6 -22 11 -8 11 -9 -2 -5 -9 3 -22 1 -30 -3 -11 -7
-10 -10 4 -16 24 -9 21 -27 -3 -19 -14 5 -20 2 -20 -9 0 -9 -4 -16 -10 -16 -5
0 -10 -10 -10 -23 0 -32 -36 -50 -95 -49 -39 1 -46 -1 -32 -9 24 -14 23 -43
-2 -36 -26 7 -52 -10 -28 -19 9 -3 17 -11 17 -16 0 -6 -6 -5 -15 2 -20 16 -51
-7 -49 -38 1 -20 -2 -22 -25 -17 -23 5 -28 1 -39 -27 -12 -30 -14 -31 -22 -13
-5 11 -9 14 -9 8 -1 -7 -8 -13 -16 -13 -8 0 -12 -6 -9 -13 3 -8 -2 -20 -11
-27 -8 -7 -15 -21 -15 -31 0 -13 -7 -19 -22 -20 -13 0 -32 -4 -43 -9 -18 -7
-17 -9 15 -24 l35 -17 -43 3 c-31 3 -41 0 -38 -9 12 -29 -5 -44 -43 -37 -29 5
-34 4 -24 -6 15 -16 -4 -50 -24 -43 -7 3 -13 1 -13 -4 0 -5 -14 -17 -31 -27
-24 -14 -28 -21 -18 -28 10 -7 8 -8 -6 -4 -14 4 -24 -1 -33 -15 -11 -18 -11
-23 5 -35 17 -12 16 -13 -12 -14 -29 -1 -29 -1 -10 -17 18 -14 18 -15 2 -9
-10 3 -21 6 -23 6 -2 0 -4 9 -4 20 0 11 -5 20 -11 20 -6 0 -8 -9 -4 -20 5 -16
3 -19 -12 -13 -16 6 -16 5 -4 -10 7 -9 20 -17 27 -17 8 0 14 -5 14 -11 0 -6
-7 -9 -15 -6 -8 4 -17 1 -21 -5 -5 -7 -9 -7 -13 1 -5 7 -20 9 -39 5 -34 -7
-44 -24 -14 -24 9 0 28 -9 42 -20 21 -17 23 -21 10 -30 -19 -13 -47 -13 -55 0
-10 16 -28 12 -21 -5 5 -14 -6 -19 -41 -18 -16 1 -16 1 0 -29 11 -22 47 -28
47 -8 0 5 -8 7 -17 3 -13 -4 -15 -3 -8 5 6 6 20 9 32 6 l22 -6 -25 -25 c-14
-14 -22 -28 -19 -31 3 -4 9 -2 13 4 10 17 49 26 57 14 3 -5 -2 -10 -12 -10
-17 -1 -17 -1 0 -14 10 -8 14 -17 9 -20 -5 -3 -15 1 -22 9 -13 16 -35 10 -24
-6 3 -5 0 -8 -8 -7 -8 2 -12 -5 -11 -17 1 -14 -2 -11 -10 8 -20 48 -37 22 -54
-82 -5 -30 -4 -33 16 -26 30 9 26 -7 -6 -27 -21 -13 -23 -18 -10 -18 9 0 17 5
17 10 0 6 7 10 15 10 8 0 15 4 15 8 0 5 20 9 45 11 29 1 45 -2 45 -10 0 -8
-11 -9 -36 -5 -33 7 -35 6 -25 -13 7 -12 7 -22 2 -25 -5 -4 -11 -1 -13 6 -2 6
-10 8 -17 4 -9 -6 -9 -11 0 -22 8 -10 8 -14 0 -14 -6 0 -11 4 -11 9 0 13 -43
10 -52 -4 -10 -14 -10 -27 0 -21 5 3 9 -1 9 -9 0 -8 -6 -15 -14 -15 -7 0 -13
9 -13 20 0 13 -7 20 -20 20 -22 0 -27 15 -9 26 8 4 7 9 -2 15 -19 12 -39 11
-39 -2 0 -5 4 -8 9 -5 5 3 11 -8 15 -24 3 -18 12 -30 21 -30 16 0 21 -25 6
-34 -18 -11 -60 12 -57 31 2 10 1 12 -1 5 -3 -7 -8 -10 -13 -7 -4 3 -10 -2
-14 -10 -3 -10 6 -21 27 -32 l32 -17 -25 -6 c-21 -5 -27 -1 -39 22 -13 26 -15
27 -31 13 -9 -8 -23 -15 -31 -16 -8 0 -1 -5 15 -9 16 -5 33 -7 38 -4 4 3 8 -2
8 -10 0 -10 -9 -16 -22 -17 -17 -1 -19 -2 -6 -6 10 -2 21 -15 24 -28 7 -28
-12 -68 -29 -58 -8 5 -8 8 1 11 14 4 16 52 2 52 -5 0 -10 -7 -10 -16 0 -9 -9
-18 -20 -21 -11 -3 -20 -9 -20 -14 0 -5 7 -6 15 -3 8 4 15 2 15 -4 0 -6 3 -17
6 -26 4 -11 0 -16 -14 -16 -15 0 -21 -9 -26 -40 -4 -25 -12 -40 -20 -40 -8 0
-16 -6 -19 -12 -2 -7 -7 -10 -11 -7 -4 3 -2 18 3 32 9 22 7 25 -10 24 -11 -1
-18 -6 -16 -12 8 -19 -13 -57 -27 -52 -8 3 -20 0 -26 -8 -8 -10 -4 -16 20 -29
29 -14 31 -14 26 2 -5 13 1 17 24 19 18 1 28 -2 25 -7 -4 -6 -14 -10 -23 -11
-11 0 -9 -3 7 -10 14 -5 31 -7 38 -5 7 3 13 1 13 -4 0 -6 -18 -10 -39 -10 -25
0 -41 -5 -45 -15 -8 -21 -28 -19 -24 3 2 12 -5 18 -22 20 -14 2 -31 9 -37 14
-10 8 -13 4 -12 -18 0 -16 3 -23 6 -16 6 16 46 16 41 0 -5 -15 -26 -16 -86 -4
-31 6 -47 4 -55 -4 -9 -10 -7 -11 11 -5 14 4 22 2 22 -5 0 -7 8 -9 19 -5 11 3
23 0 27 -6 5 -9 2 -10 -9 -6 -9 3 -21 -1 -29 -10 -11 -15 -11 -16 5 -10 9 3
17 2 17 -3 0 -6 -6 -10 -14 -10 -8 0 -17 -6 -19 -12 -3 -8 -6 -6 -6 5 -1 19
-14 22 -41 7 -11 -6 -17 -17 -14 -25 4 -8 10 -12 15 -9 5 3 9 1 9 -5 0 -5 -5
-13 -10 -16 -17 -10 -11 -24 10 -22 15 1 18 6 14 24 -4 14 -2 23 5 23 6 0 11
-16 11 -35 0 -30 -3 -35 -23 -35 -13 0 -31 -6 -41 -13 -17 -13 -16 -14 13 -26
30 -13 42 -31 21 -31 -5 0 -10 -4 -10 -9 0 -5 10 -7 23 -4 22 5 22 5 2 -10
-19 -15 -21 -15 -29 8 -12 30 -31 34 -23 5 6 -22 -8 -28 -16 -7 -4 9 -6 9 -6
0 -1 -7 -8 -13 -16 -13 -29 0 -15 -18 20 -24 19 -4 35 -10 35 -14 -1 -23 -107
-66 -136 -55 -19 7 -18 -6 4 -30 9 -11 12 -17 5 -14 -6 4 -14 3 -18 -3 -3 -5
-1 -10 4 -10 6 0 11 -5 11 -11 0 -6 -6 -9 -12 -6 -7 2 -13 14 -13 27 0 13 -6
25 -13 28 -12 4 -13 -1 -16 -55 0 -16 -11 -38 -23 -50 -23 -23 -32 -50 -13
-38 6 3 10 13 10 21 0 8 5 14 11 14 7 0 8 -12 4 -33 -9 -41 -11 -43 -30 -27
-12 10 -15 10 -15 -4 0 -10 -4 -14 -10 -11 -5 3 -10 1 -10 -5 0 -6 -5 -8 -10
-5 -6 4 -8 16 -4 27 5 18 3 20 -15 15 -11 -3 -21 -1 -21 4 0 5 5 9 11 9 6 0 8
9 4 23 -6 20 -5 21 8 4 9 -11 21 -15 32 -11 13 5 14 9 3 15 -9 6 -7 9 8 9 30
0 39 29 15 47 -13 8 -18 20 -14 31 5 14 3 15 -8 5 -7 -7 -21 -13 -31 -13 -10
0 -18 -4 -18 -10 0 -15 -44 -12 -66 5 -17 13 -17 14 -2 15 9 0 20 -4 23 -10
10 -15 35 -12 35 5 0 9 10 15 26 15 18 0 25 4 21 14 -4 10 0 12 14 9 12 -3 19
-14 19 -29 0 -24 14 -32 24 -15 4 5 0 12 -6 14 -8 3 -5 6 5 6 10 1 17 6 15 12
-2 6 -6 9 -10 7 -3 -2 -14 4 -24 13 -24 20 -104 26 -104 7 0 -10 -3 -9 -10 2
-6 9 -10 10 -10 3 0 -6 7 -19 16 -27 14 -15 14 -16 -1 -16 -20 0 -75 31 -75
42 0 4 10 7 23 5 13 -1 21 3 20 10 -2 7 4 13 12 13 24 0 17 28 -7 29 -53 2
-68 6 -68 18 0 9 7 10 26 3 14 -6 30 -7 35 -4 6 3 17 0 25 -7 8 -6 18 -9 22
-5 4 4 -1 14 -12 21 -18 13 -17 14 3 12 11 -1 21 -4 21 -7 0 -9 95 -9 101 1 3
5 27 10 53 11 51 3 92 30 62 41 -9 4 -15 1 -13 -5 2 -13 -57 -32 -61 -19 -1 4
-14 6 -27 3 -15 -2 -25 0 -25 7 0 6 -5 11 -11 11 -8 0 -8 -4 0 -14 13 -15 -1
-32 -18 -22 -13 8 -81 18 -116 17 -25 -1 -27 1 -12 10 22 13 13 29 -13 24 -11
-2 -20 0 -20 6 0 5 9 9 19 9 11 0 23 5 26 10 3 6 -2 10 -11 10 -14 0 -15 3 -6
12 6 6 25 11 42 10 16 0 30 3 30 7 0 5 -12 9 -27 9 -15 0 -29 5 -31 11 -6 17
-20 13 -27 -9 -8 -26 -25 -26 -25 0 0 11 7 20 15 20 9 0 20 11 25 25 5 14 15
25 22 26 7 0 3 5 -9 11 -33 16 -29 38 5 34 15 -2 19 -1 9 1 -9 2 -15 9 -11 14
3 6 -2 17 -12 25 -18 14 -18 15 3 9 12 -3 24 -2 27 3 3 6 -3 12 -14 15 -13 3
-20 13 -19 29 1 17 3 18 6 6 2 -10 12 -18 21 -18 12 0 13 3 4 12 -14 14 -16
48 -2 48 5 0 7 13 4 30 -5 21 -3 30 6 30 10 0 10 3 0 15 -10 12 -9 20 4 40 9
13 16 31 16 40 0 8 4 15 10 15 5 0 9 3 8 7 -1 5 5 24 14 44 9 20 19 47 22 60
4 13 11 33 15 44 4 11 18 52 30 90 36 112 78 218 152 382 10 24 19 45 19 48 0
2 19 44 41 92 53 112 82 177 83 183 2 10 125 259 287 582 40 80 50 108 25 72
-24 -34 -285 -556 -368 -734 -106 -229 -234 -530 -458 -1075 -54 -132 -118
-287 -143 -345 -103 -242 -158 -383 -153 -396 3 -7 0 -16 -5 -20 -6 -3 -8 -18
-4 -32 5 -21 4 -24 -8 -14 -11 10 -17 9 -25 0 -16 -21 -106 -251 -117 -301
-10 -43 -17 -57 -31 -57 -8 0 -14 -8 -14 -17 0 -16 2 -16 11 -3 8 11 9 6 5
-23 -2 -20 -1 -37 4 -37 5 0 10 -10 12 -23 3 -19 9 -22 43 -22 38 0 40 2 46
35 4 19 7 29 8 22 1 -10 6 -10 21 -2 28 15 35 8 38 -36 3 -35 11 -48 35 -57 5
-1 2 -30 -7 -64 -9 -33 -16 -73 -16 -87 0 -25 3 -26 50 -26 42 0 55 5 75 26
14 15 25 33 25 41 0 10 5 11 19 3 25 -13 74 -13 66 0 -3 6 -14 10 -24 10 -13
0 -17 9 -18 35 -1 40 5 43 35 15 26 -25 32 -25 32 -1 0 17 3 18 25 8 14 -7 23
-18 20 -25 -3 -8 -5 -17 -5 -21 0 -5 -11 -7 -26 -5 -21 2 -23 0 -13 -12 8 -10
8 -14 0 -14 -6 0 -10 -5 -8 -11 2 -11 -92 -41 -105 -32 -5 2 -8 -1 -8 -6 0
-18 53 -13 98 9 51 25 56 25 49 0 -5 -18 0 -20 44 -20 32 0 49 4 49 13 0 8 3
8 8 1 11 -16 193 -19 203 -2 7 10 9 10 9 1 0 -10 301 -13 1470 -13 1169 0
1470 3 1471 13 1 6 1 18 0 25 -1 6 4 12 11 12 7 0 22 13 33 29 10 16 22 28 26
25 4 -2 11 1 14 6 4 6 18 15 31 20 13 5 29 21 34 34 5 13 18 27 29 31 12 3 21
13 21 21 0 8 6 14 14 14 7 0 32 18 54 40 39 39 62 50 62 30 0 -5 -4 -10 -9
-10 -5 0 -11 -13 -14 -30 -4 -16 -16 -39 -27 -50 -12 -12 -19 -28 -16 -35 3
-8 -5 -16 -20 -19 -29 -8 -62 -38 -57 -53 2 -6 -10 -16 -27 -23 -16 -7 -30
-19 -30 -26 0 -8 -5 -14 -11 -14 -11 0 -39 -24 -39 -34 0 -3 387 -6 860 -6
473 0 860 2 860 4 0 13 -135 325 -173 401 -24 50 -61 131 -82 180 -20 50 -47
113 -60 140 -20 44 -62 154 -85 225 -29 92 -138 348 -173 410 -52 90 -82 161
-92 215 -5 29 -27 65 -80 130 -40 50 -90 117 -110 150 -21 33 -42 61 -47 63
-4 2 -8 11 -8 20 1 14 3 14 16 -3 8 -11 22 -29 31 -40 10 -11 17 -22 16 -25
-2 -12 39 -60 48 -55 5 4 6 0 3 -8 -8 -21 22 -40 51 -33 18 5 23 3 19 -7 -3
-8 2 -20 11 -27 8 -7 15 -19 15 -26 0 -8 5 -14 10 -14 6 0 10 -9 10 -21 0 -11
4 -18 9 -14 6 3 15 -5 22 -17 12 -22 12 -22 21 -3 6 15 7 11 3 -13 -3 -24 0
-37 15 -49 22 -19 27 -43 9 -43 -8 0 -8 -4 -1 -13 6 -7 8 -23 5 -36 -5 -18 -2
-22 13 -19 15 2 18 -2 16 -20 -2 -12 1 -22 6 -22 11 0 25 -37 23 -57 -1 -7 5
-13 14 -13 10 0 15 -10 15 -30 0 -17 5 -29 11 -27 13 2 42 -68 40 -100 0 -15
4 -21 13 -17 10 4 14 63 20 267 7 272 14 322 51 357 30 28 118 43 184 30 69
-13 108 -41 121 -88 11 -41 12 -1000 1 -1306 -5 -142 -3 -182 7 -193 7 -7 11
-17 8 -22 -9 -14 5 -41 21 -41 10 0 13 -6 9 -16 -4 -9 -1 -22 4 -30 6 -7 10
-18 9 -26 -3 -20 12 -68 22 -68 5 0 9 -11 9 -26 0 -24 2 -25 51 -22 l51 3 -2
280 c0 154 -3 294 -5 310 -3 17 -8 248 -11 515 -8 556 -3 628 49 706 44 67 64
71 219 39 78 -16 92 -16 131 -3 40 13 46 13 64 -2 47 -37 61 -100 74 -319 6
-106 5 -212 -1 -295 -5 -72 -6 -144 -2 -161 10 -37 44 -55 115 -61 64 -6 94
14 107 71 14 61 12 178 -5 225 -10 30 -15 83 -15 175 0 110 3 141 20 179 19
45 33 56 45 37 3 -5 19 -13 37 -16 17 -4 43 -18 57 -32 17 -15 34 -22 48 -20
15 3 33 -5 51 -23 22 -21 38 -27 68 -26 34 1 39 4 42 26 2 14 7 30 11 35 4 6
14 30 21 55 18 57 57 110 81 110 36 0 50 -51 49 -183 -1 -67 0 -347 2 -622 4
-490 5 -501 26 -555 13 -30 35 -65 50 -77 29 -24 62 -30 62 -12 0 7 15 9 42 5
24 -3 49 -5 56 -5 9 -1 10 -6 2 -20 -12 -23 -13 -34 -2 -27 10 6 12 -16 15
-124 2 -47 6 -102 11 -123 l8 -37 -55 0 -55 0 -6 36 c-8 42 -28 41 -36 -2 -12
-63 -10 -64 125 -64 l123 0 6 128 c13 258 16 281 41 342 16 38 24 76 24 108
-1 27 3 57 8 67 10 18 6 41 -19 108 -28 71 -16 467 13 467 17 0 22 -28 36
-193 10 -129 11 -188 3 -239 -6 -40 -8 -114 -4 -177 6 -100 5 -110 -12 -121
-17 -11 -19 -26 -19 -165 0 -132 2 -155 18 -172 9 -11 31 -48 47 -82 26 -52
34 -61 57 -62 16 -1 94 -3 176 -5 l147 -5 0 4535 0 4536 -6764 0 c-5402 0
-6765 -3 -6769 -12 -4 -10 -6 -10 -6 0 -1 9 -122 12 -571 12 l-571 0 6 -377
c3 -208 7 -432 10 -498 2 -66 1 -136 -4 -155 l-8 -35 -6 45 c-9 71 -27 464
-27 588 0 83 -3 112 -12 112 -10 0 -10 2 -1 8 7 5 10 40 8 107 -1 55 -3 124
-4 153 l-1 52 -207 0 -208 0 3 -282 c4 -354 -12 -437 -22 -113 -7 211 -13 387
-15 393 -1 1 -25 2 -55 2 -44 0 -55 -4 -59 -17 -4 -17 -5 -17 -6 0 -1 13 -10
17 -36 17 l-35 0 -1 -127 c-2 -104 -3 -118 -9 -73 -5 30 -8 88 -9 128 l-1 72
-120 0 -120 0 -1 -42 c0 -24 -1 -122 -1 -218 0 -125 -3 -158 -8 -115 -4 33 -5
70 -3 83 3 12 1 22 -4 22 -13 0 -11 113 2 122 6 5 6 8 -2 8 -9 0 -13 21 -13
70 l0 70 -2415 0 -2415 0 0 -4535z m4641 4432 c-1 -12 -15 -9 -19 4 -3 6 1 10
8 8 6 -3 11 -8 11 -12z m1026 -139 c-3 -22 -4 -21 -11 4 -5 16 -5 36 0 45 7
16 8 15 11 -4 3 -13 3 -33 0 -45z m-747 21 c0 -5 -9 -9 -20 -9 -11 0 -20 6
-20 14 0 9 7 12 20 9 11 -3 20 -9 20 -14z m-5 -59 c3 -5 -1 -10 -10 -10 -9 0
-13 5 -10 10 3 6 8 10 10 10 2 0 7 -4 10 -10z m208 -45 c-3 -9 -8 -14 -10 -11
-3 3 -2 9 2 15 9 16 15 13 8 -4z m27 -14 c0 -6 -4 -13 -10 -16 -5 -3 -10 1
-10 9 0 9 5 16 10 16 6 0 10 -4 10 -9z m460 -205 c0 -2 -3 -12 -6 -20 -5 -13
-9 -14 -20 -5 -20 16 -17 29 6 29 11 0 20 -2 20 -4z m-391 -104 c1 -7 -3 -10
-9 -7 -5 3 -10 21 -9 38 1 31 1 31 9 7 4 -14 8 -31 9 -38z m131 -12 c0 -5 -2
-10 -4 -10 -3 0 -8 5 -11 10 -3 6 -1 10 4 10 6 0 11 -4 11 -10z m327 -172 c-2
-13 -4 -5 -4 17 -1 22 1 32 4 23 2 -10 2 -28 0 -40z m1738 41 c4 -5 -18 -9
-49 -9 -72 0 -81 16 -10 17 29 1 56 -3 59 -8z m-2655 -129 c0 -5 -5 -10 -11
-10 -5 0 -7 5 -4 10 3 6 8 10 11 10 2 0 4 -4 4 -10z m30 6 c0 -3 -4 -8 -10
-11 -5 -3 -10 -1 -10 4 0 6 5 11 10 11 6 0 10 -2 10 -4z m-34 -53 c-10 -10
-19 5 -10 18 6 11 8 11 12 0 2 -7 1 -15 -2 -18z m314 -17 c0 -3 -4 -8 -10 -11
-5 -3 -10 -1 -10 4 0 6 5 11 10 11 6 0 10 -2 10 -4z m-30 -120 c0 -49 -2 -87
-4 -85 -2 2 -6 49 -9 104 -4 65 -3 95 3 85 5 -8 10 -55 10 -104z m-253 37 c-3
-10 -5 -4 -5 12 0 17 2 24 5 18 2 -7 2 -21 0 -30z m313 27 c0 -5 -4 -10 -10
-10 -5 0 -10 5 -10 10 0 6 5 10 10 10 6 0 10 -4 10 -10z m-343 -47 c-3 -10 -5
-4 -5 12 0 17 2 24 5 18 2 -7 2 -21 0 -30z m340 -5 c-3 -8 -6 -5 -6 6 -1 11 2
17 5 13 3 -3 4 -12 1 -19z m721 -163 c0 -73 -3 -119 -7 -105 -5 14 -6 39 -3
57 2 17 0 45 -6 62 -6 17 -8 31 -4 31 4 0 6 28 5 62 -2 45 0 57 6 43 5 -11 9
-78 9 -150z m-521 113 c-3 -7 -5 -2 -5 12 0 14 2 19 5 13 2 -7 2 -19 0 -25z
m-22 -27 c2 -23 -1 -41 -6 -41 -5 0 -9 21 -9 47 0 56 10 52 15 -6z m-208 2
c-3 -10 -5 -4 -5 12 0 17 2 24 5 18 2 -7 2 -21 0 -30z m269 -41 c3 -34 2 -52
-5 -52 -7 0 -11 23 -11 57 0 68 8 66 16 -5z m-26 4 c0 -3 -4 -8 -10 -11 -5 -3
-10 -1 -10 4 0 6 5 11 10 11 6 0 10 -2 10 -4z m-4 -52 c-4 -9 -9 -15 -11 -12
-3 3 -3 13 1 22 4 9 9 15 11 12 3 -3 3 -13 -1 -22z m431 -66 c-3 -8 -6 -5 -6
6 -1 11 2 17 5 13 3 -3 4 -12 1 -19z m7093 1 c0 -5 -6 -9 -12 -9 -20 -1 32
-40 51 -40 10 0 21 -3 24 -7 11 -10 57 -13 57 -2 0 5 5 9 10 9 6 0 10 -6 10
-13 0 -17 50 -44 75 -41 11 1 35 8 54 16 28 11 35 11 39 0 2 -7 15 -18 29 -23
14 -5 23 -12 19 -16 -3 -3 1 -14 10 -24 12 -14 13 -21 4 -36 -10 -16 -10 -16
-5 5 7 25 -12 31 -33 10 -9 -9 -12 -7 -12 10 0 12 -5 22 -11 22 -7 0 -8 -7 -3
-17 4 -10 8 -28 8 -41 1 -12 6 -20 11 -18 6 2 18 -9 27 -24 14 -25 14 -31 1
-49 -8 -12 -18 -19 -23 -16 -5 3 -7 -7 -6 -22 3 -26 -13 -55 -25 -47 -4 2 -9
-3 -13 -11 -3 -8 -1 -15 4 -15 5 0 7 -7 4 -15 -4 -8 -12 -15 -20 -15 -8 0 -14
-4 -14 -10 0 -5 -7 -10 -16 -10 -11 0 -15 -6 -11 -20 5 -18 -4 -25 -26 -21 -5
1 -8 -7 -7 -16 4 -30 1 -39 -20 -63 -23 -27 -19 -39 7 -19 16 13 17 12 5 -3
-7 -9 -17 -29 -22 -45 -7 -24 -8 -25 -9 -5 -1 28 -6 28 -39 -3 -21 -19 -23
-25 -10 -25 9 0 19 -4 22 -9 3 -4 -5 -6 -18 -4 -18 4 -25 -2 -35 -25 -7 -16
-11 -33 -10 -38 4 -25 -3 -26 -17 -4 l-15 25 7 -25 c6 -22 5 -23 -9 -12 -12
10 -17 10 -23 1 -4 -7 -2 -15 4 -17 13 -4 17 -23 5 -21 -24 4 -43 -3 -43 -15
0 -8 -4 -18 -10 -21 -5 -3 -7 0 -5 7 4 10 -4 13 -35 10 -35 -4 -40 -7 -34 -24
5 -17 3 -18 -14 -9 -26 14 -35 14 -27 1 3 -5 -1 -10 -10 -10 -9 0 -14 4 -11 8
3 5 -22 6 -55 4 -51 -4 -63 -1 -79 16 -13 14 -15 23 -7 31 19 19 0 22 -54 9
-63 -16 -149 -5 -149 18 0 32 132 409 170 485 67 135 168 267 188 247 2 -2 8
5 13 15 6 9 20 17 32 17 12 0 33 6 47 13 26 14 60 11 60 -4z m-7123 -26 c-3
-10 -5 -4 -5 12 0 17 2 24 5 18 2 -7 2 -21 0 -30z m58 -13 c0 -44 -3 -50 -20
-49 -11 0 -14 3 -7 6 7 3 12 23 12 49 0 24 3 44 8 44 4 0 7 -23 7 -50z m7105
20 c0 -5 -7 -10 -15 -10 -8 0 -15 5 -15 10 0 6 7 10 15 10 8 0 15 -4 15 -10z
m-8051 -69 c12 -16 21 -32 21 -36 0 -4 8 -14 18 -21 23 -18 10 -17 -72 4 -57
15 -66 20 -54 30 12 10 21 9 44 -3 34 -17 45 -4 20 24 -18 20 -20 31 -7 31 5
0 19 -13 30 -29z m1010 -88 c1 -7 -3 -13 -9 -13 -5 0 -10 17 -9 38 1 33 2 34
9 12 4 -14 8 -31 9 -37z m-742 5 c13 -12 23 -27 23 -35 0 -7 7 -13 15 -13 8 0
15 -4 15 -10 0 -14 -27 -11 -90 9 -43 14 -51 20 -37 26 10 4 29 3 43 -3 27
-13 32 -1 9 18 -16 13 -20 30 -8 30 4 0 17 -10 30 -22z m-1486 -59 c140 -60
159 -70 159 -81 0 -13 -77 -4 -169 19 -65 16 -131 61 -131 89 0 24 43 16 141
-27z m9659 37 c0 -9 -30 -14 -35 -6 -4 6 3 10 14 10 12 0 21 -2 21 -4z m-7926
-89 c16 -20 27 -39 25 -41 -5 -5 -119 20 -127 28 -3 4 0 12 6 18 9 9 18 9 37
0 24 -11 25 -10 15 7 -25 47 2 39 44 -12z m1771 3 c3 -5 -3 -10 -15 -10 -12 0
-18 5 -15 10 3 6 10 10 15 10 5 0 12 -4 15 -10z m-465 -19 c0 -24 -15 -35 -36
-27 -12 4 -13 10 -4 26 14 26 40 26 40 1z m-1940 -31 c8 -5 11 -10 5 -10 -5 0
-17 5 -25 10 -8 5 -10 10 -5 10 6 0 17 -5 25 -10z m126 -17 c34 -36 85 -53
174 -58 58 -4 79 -9 90 -23 28 -34 62 -45 145 -47 99 -3 95 -3 95 -16 0 -7 11
-22 25 -35 29 -27 31 -34 10 -34 -8 0 -15 -4 -15 -10 0 -25 -22 -6 -42 35 -22
45 -22 45 -72 45 l-51 0 45 -38 c95 -79 170 -154 170 -170 0 -10 -5 -10 -21
-2 -25 14 -211 178 -222 196 -9 16 -37 19 -37 4 0 -27 -28 -5 -44 35 l-19 45
-56 0 -56 -1 35 -31 c19 -17 55 -49 80 -70 119 -104 122 -108 99 -108 -12 0
-92 63 -164 128 -112 103 -145 122 -145 87 0 -8 -7 -15 -15 -15 -8 0 -14 3
-13 8 1 4 -7 24 -17 45 -14 27 -25 37 -42 37 -13 0 -23 5 -23 10 0 22 61 10
86 -17z m-87 -50 c36 -32 71 -61 76 -65 35 -25 85 -71 85 -79 0 -24 -35 -2
-126 79 -113 101 -133 122 -114 122 7 0 43 -26 79 -57z m1022 -15 c30 -37 25
-50 -18 -42 -46 8 -55 13 -48 25 4 5 14 5 26 -1 22 -12 24 -7 9 21 -15 27 7
25 31 -3z m-1558 -4 c37 -19 67 -44 67 -56 0 -12 -29 -9 -90 10 -100 31 -108
52 -22 61 7 0 27 -6 45 -15z m1271 -19 c-7 -16 -24 -21 -24 -6 0 8 7 13 27 20
1 1 0 -6 -3 -14z m1291 -145 c0 -21 -5 -26 -31 -28 -22 -2 -33 2 -38 14 -9 24
11 43 42 41 22 -2 27 -8 27 -27z m35 -29 c0 -12 -20 -25 -27 -18 -7 7 6 27 18
27 5 0 9 -4 9 -9z m5675 -221 c3 -5 -1 -10 -9 -10 -9 0 -16 5 -16 10 0 6 4 10
9 10 6 0 13 -4 16 -10z m-5825 -54 c0 -18 -16 -29 -30 -21 -13 8 -1 35 16 35
8 0 14 -6 14 -14z m6020 4 c18 -6 7 -8 -42 -9 -37 -1 -70 4 -73 9 -7 12 78 12
115 0z m-270 -46 c0 -23 -28 -4 -33 22 -4 24 -3 24 14 8 11 -9 19 -23 19 -30z
m243 10 c45 -4 65 -9 60 -17 -4 -6 0 -8 10 -4 10 3 17 2 17 -3 0 -5 14 -7 30
-3 25 4 30 2 30 -13 0 -16 -2 -17 -10 -4 -8 13 -11 13 -19 1 -5 -7 -14 -10
-20 -7 -6 4 -11 0 -11 -9 0 -9 -5 -14 -12 -11 -7 2 -31 10 -53 16 -22 7 -49
16 -60 20 -11 5 -37 14 -57 20 -47 14 -50 30 -5 25 17 -3 62 -7 100 -11z
m-239 -50 c3 -8 2 -12 -4 -9 -6 3 -10 10 -10 16 0 14 7 11 14 -7z m803 10 c-3
-3 -12 -4 -19 -1 -8 3 -5 6 6 6 11 1 17 -2 13 -5z m46 -11 c-7 -2 -19 -2 -25
0 -7 3 -2 5 12 5 14 0 19 -2 13 -5z m-688 -33 c8 -13 -5 -13 -25 0 -13 8 -13
10 2 10 9 0 20 -4 23 -10z m-155 -40 c0 -5 -2 -10 -4 -10 -3 0 -8 5 -11 10 -3
6 -1 10 4 10 6 0 11 -4 11 -10z m110 -57 c0 -7 -7 -13 -15 -13 -8 0 -15 6 -15
13 0 8 7 14 15 14 8 0 15 -6 15 -14z m418 0 c-10 -2 -18 -14 -18 -25 0 -16 -3
-18 -13 -9 -8 6 -17 8 -20 4 -4 -3 -7 1 -7 11 0 9 5 14 10 11 6 -3 10 -1 10 4
0 6 12 10 28 10 16 -1 20 -3 10 -6z m-9705 -31 c36 -31 12 -82 -39 -82 -22 0
-82 40 -89 59 -8 21 13 39 48 43 39 4 57 0 80 -20z m9741 14 c-7 -18 -32 -28
-39 -16 -3 5 3 13 12 19 25 14 33 13 27 -3z m1044 -18 c-4 -12 -99 -50 -107
-42 -12 12 18 38 55 49 41 12 57 10 52 -7z m-1651 -5 c5 -13 -25 -26 -38 -17
-6 3 -5 11 2 20 13 16 31 14 36 -3z m153 -7 c0 -3 -4 -8 -10 -11 -5 -3 -10 -1
-10 4 0 6 5 11 10 11 6 0 10 -2 10 -4z m236 -12 c19 -9 34 -20 34 -24 0 -4 11
-12 25 -18 14 -6 25 -18 25 -27 0 -8 7 -15 15 -15 18 0 20 -16 3 -23 -8 -3 -6
-6 5 -6 21 -1 23 -21 2 -21 -18 0 -20 -16 -2 -24 10 -5 10 -7 0 -12 -7 -3 -13
-12 -13 -20 0 -9 5 -12 10 -9 6 3 10 1 10 -4 0 -10 -13 -14 -52 -14 -10 0 -18
-4 -18 -8 0 -5 6 -9 13 -9 8 0 7 -4 -3 -10 -13 -8 -13 -10 1 -10 22 0 20 -25
-3 -39 -17 -11 -18 -10 -8 9 9 16 8 20 -5 20 -8 0 -20 -11 -25 -24 -5 -13 -13
-27 -19 -31 -6 -3 -9 0 -5 8 4 10 -3 13 -25 9 -17 -2 -28 -8 -25 -13 3 -5 -4
-9 -16 -9 -12 0 -24 -9 -30 -22 -5 -13 -9 -18 -9 -11 -1 7 -8 10 -17 6 -11 -4
-12 -9 -5 -16 7 -7 7 -15 0 -24 -9 -10 -7 -13 7 -14 35 -1 -39 -19 -104 -25
-53 -4 -67 -2 -92 16 -34 24 -37 45 -15 92 9 18 27 85 39 148 13 63 25 108 25
100 1 -11 7 -8 20 10 l19 24 20 -24 20 -24 38 18 c22 11 46 23 54 27 8 5 25
13 38 19 12 5 22 16 22 25 0 19 4 19 46 -1z m-269 -16 c-3 -8 -6 -5 -6 6 -1
11 2 17 5 13 3 -3 4 -12 1 -19z m-90 -95 c-9 -144 -33 -211 -53 -150 -10 31
-6 69 11 111 8 19 15 57 15 83 0 35 3 44 10 33 8 -13 10 -12 10 3 0 9 3 17 7
17 3 0 3 -44 0 -97z m93 67 c0 -5 -5 -10 -11 -10 -5 0 -7 5 -4 10 3 6 8 10 11
10 2 0 4 -4 4 -10z m-266 -44 c-3 -14 0 -29 10 -39 9 -8 16 -20 16 -24 0 -5
23 -44 51 -87 48 -75 50 -79 34 -102 -8 -13 -20 -24 -26 -24 -21 0 -51 22 -70
53 -15 23 -19 26 -17 12 1 -12 -8 -34 -20 -50 -17 -21 -22 -38 -18 -57 l5 -27
-78 -3 c-47 -2 -87 2 -102 9 -32 16 -44 3 -44 -48 0 -35 -1 -38 -12 -23 -39
54 6 154 113 252 44 40 97 97 119 127 22 30 41 54 43 55 1 0 0 -11 -4 -24z
m1912 -87 c-3 -17 -6 -48 -7 -68 0 -29 -2 -32 -9 -16 -5 11 -9 33 -9 48 -1 19
-8 30 -23 36 l-23 9 25 10 c44 19 53 15 46 -19z m-8582 -325 c24 -787 31
-1193 22 -1183 -2 2 -6 85 -10 184 -4 99 -9 239 -12 310 -8 226 -24 838 -23
900 1 46 3 54 9 34 4 -15 11 -125 14 -245z m8556 150 c-28 -50 -29 -51 -27
-23 1 13 7 30 14 37 7 7 13 21 13 30 0 11 3 13 11 5 7 -7 4 -22 -11 -49z
m-1706 -113 c9 -10 34 -26 56 -36 22 -10 40 -22 40 -27 0 -4 8 -8 18 -8 23 0
40 -29 35 -60 -2 -19 -1 -21 6 -10 6 8 13 11 17 8 4 -4 0 -18 -8 -30 -7 -13
-13 -44 -13 -70 0 -43 -2 -48 -22 -48 -27 0 -30 -20 -7 -55 16 -25 16 -25 -15
-19 -31 7 -40 -3 -20 -23 7 -7 6 -15 -5 -26 -22 -22 -20 -30 5 -17 28 15 33 8
11 -16 -10 -11 -17 -25 -15 -31 2 -6 -1 -15 -8 -19 -9 -5 -10 -2 -6 9 3 9 -1
21 -11 29 -8 7 -13 8 -9 2 4 -6 -3 -20 -15 -30 -20 -19 -21 -19 -14 2 7 24
-18 59 -35 48 -5 -3 -9 -2 -8 3 4 23 -4 30 -31 27 -22 -3 -28 0 -24 10 3 9 -3
17 -15 21 -11 3 -34 20 -51 36 -31 31 -38 25 -19 -14 9 -20 8 -19 -11 3 -20
22 -23 23 -31 7 -16 -27 -30 -20 -24 13 3 17 1 30 -5 30 -5 0 -10 -17 -10 -37
0 -30 -3 -35 -11 -23 -8 11 -12 12 -16 3 -7 -18 -38 -16 -57 3 -9 8 -20 13
-25 9 -5 -3 -12 -1 -16 5 -9 15 -36 12 -58 -7 -19 -18 -20 -17 -7 7 7 14 29
41 49 61 20 20 56 58 81 84 38 39 48 45 70 39 111 -31 207 27 203 122 -2 48 5
54 31 25z m-7411 -108 c-7 -2 -19 -2 -25 0 -7 3 -2 5 12 5 14 0 19 -2 13 -5z
m7417 -354 c0 -6 -4 -7 -10 -4 -5 3 -10 11 -10 16 0 6 5 7 10 4 6 -3 10 -11
10 -16z m-215 -33 c74 -19 121 -44 122 -64 3 -37 8 -57 17 -63 5 -4 5 -20 1
-35 -6 -20 -9 -24 -12 -13 -3 11 -11 15 -24 12 -10 -3 -19 0 -19 6 0 6 10 12
23 12 16 1 18 2 5 6 -19 5 -25 23 -8 23 6 0 10 10 10 21 0 16 -5 20 -20 16
-11 -3 -20 -1 -20 5 0 5 -4 7 -9 4 -4 -3 -27 -8 -51 -11 -23 -3 -54 -11 -69
-19 -38 -21 -90 -36 -122 -36 -18 0 -29 -6 -32 -17 -3 -10 -3 2 0 27 6 50 42
112 76 128 30 15 73 14 132 -2z m295 -26 c0 -5 -2 -10 -4 -10 -3 0 -8 5 -11
10 -3 6 -1 10 4 10 6 0 11 -4 11 -10z m-200 -160 c0 -5 -2 -10 -4 -10 -3 0 -8
5 -11 10 -3 6 -1 10 4 10 6 0 11 -4 11 -10z m40 -50 c0 -5 -5 -10 -11 -10 -5
0 -7 5 -4 10 3 6 8 10 11 10 2 0 4 -4 4 -10z m-233 -86 c-3 -3 -12 -4 -19 -1
-8 3 -5 6 6 6 11 1 17 -2 13 -5z m233 -4 c0 -5 -7 -7 -15 -4 -8 4 -15 8 -15
10 0 2 7 4 15 4 8 0 15 -4 15 -10z m-167 -27 c-2 -6 8 -13 24 -16 43 -8 62 -5
56 10 -3 7 -1 13 3 13 5 0 19 3 30 6 25 7 40 -21 23 -42 -6 -7 -8 -18 -4 -24
4 -6 1 -17 -5 -25 -10 -12 -9 -15 4 -15 23 0 20 -27 -4 -33 -11 -3 -18 -1 -14
4 3 5 -2 9 -11 9 -11 0 -15 -5 -11 -15 3 -8 1 -15 -5 -15 -6 0 -9 -7 -6 -14 4
-10 1 -13 -9 -9 -7 3 -14 0 -14 -6 0 -6 -6 -11 -14 -11 -8 0 -17 -6 -19 -12
-4 -10 -8 -10 -15 1 -6 8 -15 10 -23 6 -9 -6 -11 -4 -6 7 4 12 1 14 -13 11
-11 -3 -16 -11 -13 -19 3 -8 0 -14 -6 -14 -6 0 -11 5 -11 11 0 7 -9 9 -21 6
-19 -5 -20 -2 -15 31 3 20 8 66 12 102 l6 65 43 0 c28 0 41 -4 38 -12z m2302
-288 c-16 -14 -64 -51 -105 -82 -41 -32 -79 -64 -83 -70 -4 -7 -14 -13 -22
-13 -17 0 -37 -34 -27 -45 4 -4 0 -5 -9 -3 -9 2 -34 -16 -57 -40 -25 -27 -46
-41 -53 -36 -7 4 -10 3 -6 -2 3 -5 -1 -18 -9 -29 -8 -10 -14 -16 -14 -12 0 4
-9 -2 -20 -13 -22 -22 -26 -40 -10 -40 6 0 10 5 10 11 0 7 9 9 24 5 18 -4 25
-1 29 15 3 12 10 18 16 15 5 -4 12 -2 16 4 3 5 13 10 21 10 8 0 22 7 32 15 49
44 83 66 92 60 5 -3 23 8 40 25 16 16 34 30 39 30 19 0 21 -19 4 -28 -14 -8
-15 -13 -5 -25 9 -10 10 -17 2 -22 -5 -3 -10 1 -10 9 0 16 -20 23 -20 9 0 -5
-28 -37 -60 -72 -67 -70 -106 -121 -93 -121 4 0 2 -4 -6 -9 -8 -5 -16 -17 -17
-25 -1 -9 2 -14 7 -10 11 7 11 1 -1 -30 -7 -21 -6 -26 5 -26 8 0 15 -7 15 -16
0 -14 2 -15 17 -3 12 11 17 11 20 2 3 -8 14 -2 29 16 20 24 30 28 66 26 49 -3
82 21 72 51 -3 11 -2 15 3 9 4 -5 14 -10 21 -11 31 -3 33 -4 22 -25 -15 -27
-7 -34 20 -17 16 10 20 19 16 41 -6 28 16 49 32 32 4 -4 1 -10 -5 -12 -18 -6
-16 -23 2 -23 20 0 19 -10 -2 -26 -17 -13 -17 -13 0 -14 10 0 50 28 88 62 38
33 71 59 74 57 6 -6 -593 -600 -740 -734 -172 -157 -269 -249 -273 -257 -2 -5
-11 -8 -21 -8 -10 0 -27 22 -47 63 -16 34 -58 112 -93 174 -50 90 -65 125 -74
182 -8 57 -13 68 -24 59 -7 -6 -16 -8 -19 -5 -3 3 9 13 26 23 16 10 28 24 26
31 -3 7 1 13 8 13 8 0 30 21 49 48 48 65 261 270 382 368 109 88 293 227 414
313 42 30 105 76 141 103 68 51 96 65 45 23z m-8888 -187 c-3 -8 -6 -5 -6 6
-1 11 2 17 5 13 3 -3 4 -12 1 -19z m-654 -49 c-7 -7 -12 -3 -15 16 -5 25 -4
25 10 11 12 -11 13 -19 5 -27z m504 -23 c-5 -15 -77 -14 -77 1 0 6 10 13 23
15 13 2 21 9 19 18 -3 10 2 9 18 -5 11 -10 19 -23 17 -29z m-537 30 c0 -3 -4
-8 -10 -11 -5 -3 -10 -1 -10 4 0 6 5 11 10 11 6 0 10 -2 10 -4z m300 -17 c0
-5 -7 -9 -15 -9 -9 0 -12 6 -9 15 6 15 24 11 24 -6z m-43 -5 c-3 -3 -12 -4
-19 -1 -8 3 -5 6 6 6 11 1 17 -2 13 -5z m9227 -59 c-4 -8 -11 -15 -16 -15 -6
0 -5 6 2 15 7 8 14 15 16 15 2 0 1 -7 -2 -15z m146 -95 c0 -5 -5 -10 -11 -10
-5 0 -7 5 -4 10 3 6 8 10 11 10 2 0 4 -4 4 -10z m-140 -30 c0 -5 -4 -10 -10
-10 -5 0 -10 5 -10 10 0 6 5 10 10 10 6 0 10 -4 10 -10z m-9306 -9 c4 -5 3
-16 0 -25 -5 -13 -22 -16 -79 -16 -72 0 -72 0 -67 25 4 24 8 25 73 25 37 0 70
-4 73 -9z m9137 -74 c-13 -12 -20 -15 -16 -7 14 26 28 41 33 35 3 -3 -5 -16
-17 -28z m694 -117 c0 -22 -21 -22 -22 1 -1 12 3 19 10 16 7 -2 12 -10 12 -17z
m838 -25 c15 -4 27 -10 27 -14 0 -4 16 -13 35 -21 19 -8 35 -17 35 -22 0 -4 7
-8 16 -8 9 0 28 -8 42 -18 15 -10 58 -36 96 -57 65 -35 126 -84 126 -99 0 -4
-20 7 -45 24 -24 17 -67 43 -95 58 -71 38 -99 54 -148 85 -24 16 -51 31 -60
34 -34 13 -92 54 -92 65 0 7 7 5 18 -5 9 -8 29 -19 45 -22z m-553 6 c0 -15
-37 -23 -62 -15 -23 8 -20 10 55 23 4 0 7 -3 7 -8z m164 -30 c10 -11 15 -24
11 -30 -3 -7 0 -8 9 -5 9 3 22 -1 31 -9 20 -20 19 -23 -7 -23 -23 0 -49 18
-47 33 4 21 -2 33 -16 33 -8 0 -15 5 -15 10 0 16 15 12 34 -9z m-324 5 c0 -3
-4 -8 -10 -11 -5 -3 -10 -1 -10 4 0 6 5 11 10 11 6 0 10 -2 10 -4z m413 -30
c4 -10 0 -12 -14 -9 -22 6 -26 23 -5 23 8 0 16 -6 19 -14z m77 -56 c0 -5 -7
-10 -16 -10 -8 0 -12 5 -9 10 3 6 10 10 16 10 5 0 9 -4 9 -10z m28 -81 c-2 -6
-8 -10 -13 -10 -5 0 -11 4 -13 10 -2 6 4 11 13 11 9 0 15 -5 13 -11z m68 -8
c22 -17 23 -31 1 -31 -6 0 -8 3 -4 6 7 7 -12 28 -33 37 -11 4 -11 6 -2 6 8 1
25 -7 38 -18z m284 -11 c0 -5 -7 -7 -15 -4 -8 4 -15 8 -15 10 0 2 7 4 15 4 8
0 15 -4 15 -10z m-2785 -400 c7 0 17 -9 20 -20 3 -11 13 -20 21 -20 19 0 18
-19 -3 -42 -10 -12 -12 -18 -4 -18 7 0 9 -5 5 -11 -4 -6 -19 -9 -38 -5 -22 4
-27 3 -16 -4 13 -9 13 -11 0 -21 -13 -9 -12 -10 3 -5 21 7 22 -7 2 -24 -9 -7
-12 -22 -9 -40 3 -15 1 -37 -5 -49 -9 -16 -9 -21 1 -21 19 0 -23 -26 -54 -33
-23 -6 -25 -4 -21 13 3 11 10 20 17 20 7 0 7 3 -2 8 -9 6 -10 21 -2 63 5 30
11 69 13 87 2 18 11 38 20 45 18 13 24 59 13 97 l-8 25 17 -22 c9 -13 22 -23
30 -23z m2985 21 c0 -6 -4 -13 -10 -16 -5 -3 -10 1 -10 9 0 9 5 16 10 16 6 0
10 -4 10 -9z m-70 -25 c0 -8 -9 -14 -19 -13 -15 1 -17 4 -9 14 14 17 28 16 28
-1z m-55 -26 c-10 -16 26 -25 36 -9 8 12 11 12 19 -1 21 -32 6 -39 -60 -29
-25 3 -37 7 -27 7 10 1 17 10 17 22 0 11 5 20 11 20 5 0 7 -5 4 -10z m-2905
-10 c0 -5 -4 -10 -10 -10 -5 0 -10 5 -10 10 0 6 5 10 10 10 6 0 10 -4 10 -10z
m2820 -14 c0 -3 -4 -8 -10 -11 -5 -3 -10 -1 -10 4 0 6 5 11 10 11 6 0 10 -2
10 -4z m110 -46 c0 -5 -5 -10 -11 -10 -5 0 -7 5 -4 10 3 6 8 10 11 10 2 0 4
-4 4 -10z m-53 -22 c-3 -8 -6 -5 -6 6 -1 11 2 17 5 13 3 -3 4 -12 1 -19z m273
-17 c0 -5 -7 -11 -15 -15 -15 -5 -20 5 -8 17 9 10 23 9 23 -2z m-227 -46 c1
-5 -6 -11 -15 -13 -11 -2 -18 3 -18 13 0 17 30 18 33 0z m137 5 c-12 -8 -12
-10 -1 -10 8 0 12 -2 9 -5 -3 -3 -13 -2 -22 1 -14 5 -15 9 -4 15 7 5 18 9 23
9 6 0 3 -5 -5 -10z m-46 -27 c-2 -40 -2 -40 -20 -14 -14 19 -14 25 -3 32 22
14 25 11 23 -18z m-10364 -13 c0 -5 -4 -10 -10 -10 -5 0 -10 5 -10 10 0 6 5
10 10 10 6 0 10 -4 10 -10z m10225 0 c3 -5 1 -10 -4 -10 -6 0 -11 5 -11 10 0
6 2 10 4 10 3 0 8 -4 11 -10z m5 -49 c0 -6 -4 -13 -10 -16 -5 -3 -10 1 -10 9
0 9 5 16 10 16 6 0 10 -4 10 -9z m-510 -276 c0 -8 -2 -15 -4 -15 -2 0 -6 7
-10 15 -3 8 -1 15 4 15 6 0 10 -7 10 -15z m-10 -55 c0 -5 -5 -10 -11 -10 -5 0
-7 5 -4 10 3 6 8 10 11 10 2 0 4 -4 4 -10z m396 -23 c-15 -19 -26 -37 -26 -40
0 -4 -13 -36 -30 -70 -16 -35 -30 -69 -30 -75 0 -7 -4 -12 -8 -12 -15 0 -51
-78 -39 -83 9 -3 9 -10 0 -26 -7 -11 -13 -30 -13 -41 0 -11 -4 -20 -8 -20 -5
0 -9 -14 -10 -31 0 -17 -5 -36 -10 -42 -6 -7 -12 -31 -16 -55 -3 -24 -7 -46
-10 -50 -2 -4 -7 -38 -11 -77 -3 -38 -8 -72 -10 -75 -1 -3 -6 -27 -9 -55 -4
-27 -12 -70 -17 -95 -16 -72 -11 -424 7 -510 4 -16 2 -21 -4 -15 -5 6 -13 48
-17 95 -3 46 -9 88 -12 93 -7 12 -5 435 2 447 3 6 1 10 -6 10 -9 0 -9 3 0 14
9 11 9 15 -1 19 -10 3 -9 9 5 24 20 23 22 43 5 43 -8 1 -5 7 6 15 13 10 17 21
12 39 -3 15 -11 26 -16 26 -6 0 -10 5 -10 11 0 6 9 8 20 4 14 -4 20 -2 20 9 0
19 -23 33 -28 18 -5 -17 -22 -15 -22 3 0 8 5 15 10 15 6 0 10 11 10 25 0 17 6
25 18 25 14 0 14 2 3 9 -12 8 -12 13 2 35 9 14 17 38 17 53 0 63 60 217 95
244 12 10 28 32 35 48 12 30 48 60 85 73 35 11 36 9 11 -25z m-10096 -6 c0
-11 -4 -22 -9 -25 -12 -8 -34 21 -26 34 11 17 35 11 35 -9z m9610 -1 c0 -5 -4
-10 -10 -10 -5 0 -10 5 -10 10 0 6 5 10 10 10 6 0 10 -4 10 -10z m180 -10 c0
-5 -4 -10 -10 -10 -5 0 -10 5 -10 10 0 6 5 10 10 10 6 0 10 -4 10 -10z m-120
-10 c0 -5 -2 -10 -4 -10 -3 0 -8 5 -11 10 -3 6 -1 10 4 10 6 0 11 -4 11 -10z
m-165 -11 c11 -16 1 -19 -13 -3 -7 8 -8 14 -3 14 5 0 13 -5 16 -11z m65 7 c0
-9 -40 -13 -46 -5 -3 5 6 9 20 9 14 0 26 -2 26 -4z m-9562 -148 c-6 -18 -28
-21 -28 -4 0 9 7 16 16 16 9 0 14 -5 12 -12z m9105 -208 c3 -11 1 -23 -4 -26
-5 -3 -9 6 -9 20 0 31 6 34 13 6z m-9098 -200 c0 -27 -22 -39 -31 -16 -8 22 3
49 19 43 6 -2 12 -14 12 -27z m9815 20 c0 -5 -4 -10 -10 -10 -5 0 -10 5 -10
10 0 6 5 10 10 10 6 0 10 -4 10 -10z m-1060 -160 c0 -5 -4 -10 -9 -10 -6 0
-13 5 -16 10 -3 6 1 10 9 10 9 0 16 -4 16 -10z m1020 -80 c0 -5 -2 -10 -4 -10
-3 0 -8 5 -11 10 -3 6 -1 10 4 10 6 0 11 -4 11 -10z m-1197 -135 c-3 -9 -8
-14 -10 -11 -3 3 -2 9 2 15 9 16 15 13 8 -4z m32 -25 c3 -6 -1 -7 -9 -4 -18 7
-21 14 -7 14 6 0 13 -4 16 -10z m-81 -6 c23 -9 20 -23 -4 -17 -11 3 -20 9 -20
14 0 11 3 11 24 3z m166 -24 c0 -5 -5 -10 -11 -10 -5 0 -7 5 -4 10 3 6 8 10
11 10 2 0 4 -4 4 -10z m-8350 -30 c0 -23 -4 -30 -20 -30 -23 0 -25 12 -8 40
18 28 28 25 28 -10z m8260 -5 c0 -2 -7 -5 -15 -9 -9 -3 -15 0 -15 9 0 9 6 12
15 9 8 -4 15 -7 15 -9z m52 -7 c-7 -7 -12 -8 -12 -2 0 14 12 26 19 19 2 -3 -1
-11 -7 -17z m98 18 c0 -3 -4 -8 -10 -11 -5 -3 -10 -1 -10 4 0 6 5 11 10 11 6
0 10 -2 10 -4z m10 -36 c0 -5 -7 -10 -15 -10 -8 0 -15 5 -15 10 0 6 7 10 15
10 8 0 15 -4 15 -10z m-190 -20 c-6 -11 -15 -20 -20 -20 -16 0 -11 18 8 29 24
14 24 14 12 -9z m70 5 c7 -9 8 -15 2 -15 -5 0 -12 7 -16 15 -3 8 -4 15 -2 15
2 0 9 -7 16 -15z m-30 -5 c0 -5 -7 -10 -16 -10 -8 0 -12 5 -9 10 3 6 10 10 16
10 5 0 9 -4 9 -10z m61 -47 c32 -19 38 -33 14 -33 -8 0 -15 6 -15 13 0 8 -10
19 -22 25 -13 6 -19 11 -15 11 5 1 22 -7 38 -16z m-215 -20 c-7 -7 -26 7 -26
19 0 6 6 6 15 -2 9 -7 13 -15 11 -17z m164 2 c5 0 10 -3 10 -7 0 -8 -2 -8 -32
0 -19 5 -23 14 -11 25 4 4 10 2 14 -5 5 -7 13 -13 19 -13z m2930 9 c0 -8 -4
-12 -10 -9 -5 3 -10 10 -10 16 0 5 5 9 10 9 6 0 10 -7 10 -16z m-2983 -45 c2
-24 -1 -30 -13 -25 -9 3 -22 6 -30 6 -23 0 -16 20 9 21 17 1 18 2 4 6 -21 5
-13 23 11 23 12 0 18 -9 19 -31z m-5577 -15 c0 -8 -5 -12 -10 -9 -6 4 -8 11
-5 16 9 14 15 11 15 -7z m8 -75 c-2 -6 -8 -10 -13 -10 -5 0 -11 4 -13 10 -2 6
4 11 13 11 9 0 15 -5 13 -11z m992 -9 c0 -5 -2 -10 -4 -10 -3 0 -8 5 -11 10
-3 6 -1 10 4 10 6 0 11 -4 11 -10z m-800 -26 c0 -8 -5 -12 -10 -9 -6 4 -8 11
-5 16 9 14 15 11 15 -7z m1265 6 c-3 -5 -10 -10 -16 -10 -5 0 -9 5 -9 10 0 6
7 10 16 10 8 0 12 -4 9 -10z m3975 -5 c11 -13 10 -14 -4 -9 -10 4 -16 1 -16
-7 0 -7 -2 -10 -5 -7 -5 5 4 38 10 38 1 0 8 -7 15 -15z m90 5 c0 -5 -3 -10 -7
-10 -5 0 -18 -3 -30 -6 -14 -4 -23 -2 -23 5 0 7 4 10 9 6 5 -3 12 -1 16 5 8
13 35 13 35 0z m-3610 -21 c0 -5 -4 -9 -10 -9 -5 0 -10 7 -10 16 0 8 5 12 10
9 6 -3 10 -10 10 -16z m9405 15 c12 -5 13 -9 5 -14 -8 -5 -8 -11 2 -21 34 -34
52 -264 24 -317 -7 -15 -20 -47 -28 -72 -8 -25 -21 -46 -29 -48 -29 -5 -37 53
-34 232 3 172 8 209 27 234 12 14 11 14 33 6z m-9075 -40 c0 -8 -9 -14 -20
-14 -22 0 -26 10 -8 28 13 13 28 7 28 -14z m-2245 6 c3 -5 3 -15 -1 -21 -6
-11 -23 6 -24 24 0 10 18 9 25 -3z m142 -16 c-9 -9 -28 6 -21 18 4 6 10 6 17
-1 6 -6 8 -13 4 -17z m863 0 c0 -8 -9 -14 -20 -14 -22 0 -28 26 -7 33 16 6 27
-1 27 -19z m390 16 c0 -5 -7 -10 -16 -10 -8 0 -12 5 -9 10 3 6 10 10 16 10 5
0 9 -4 9 -10z m600 -15 c0 -9 -9 -15 -25 -15 -16 0 -25 6 -25 15 0 9 9 15 25
15 16 0 25 -6 25 -15z m118 3 c-6 -18 -28 -21 -28 -4 0 9 7 16 16 16 9 0 14
-5 12 -12z m-648 -12 c0 -8 -7 -16 -15 -20 -10 -4 -15 1 -15 14 0 11 7 20 15
20 8 0 15 -6 15 -14z m380 4 c0 -5 -5 -10 -11 -10 -5 0 -7 5 -4 10 3 6 8 10
11 10 2 0 4 -4 4 -10z m-1642 -31 c-16 -10 -33 5 -23 21 5 8 11 8 21 -1 12
-10 12 -14 2 -20z m5212 16 c0 -19 -12 -25 -27 -14 -19 16 -16 28 7 26 11 -1
20 -6 20 -12z m-4350 -15 c0 -21 -15 -27 -25 -10 -7 12 2 30 16 30 5 0 9 -9 9
-20z m855 -5 c0 -11 -8 -21 -17 -23 -14 -3 -18 3 -18 23 0 20 4 26 18 23 9 -2
17 -12 17 -23z m385 15 c0 -5 -7 -10 -15 -10 -8 0 -15 5 -15 10 0 6 7 10 15
10 8 0 15 -4 15 -10z m-520 -14 c0 -17 -14 -29 -23 -20 -8 8 3 34 14 34 5 0 9
-6 9 -14z m5057 -33 c-3 -10 -5 -4 -5 12 0 17 2 24 5 18 2 -7 2 -21 0 -30z
m-6697 7 c0 -21 -15 -27 -25 -10 -7 12 2 30 16 30 5 0 9 -9 9 -20z m854 14
c19 -7 21 -40 4 -47 -29 -10 -53 25 -31 46 8 8 8 8 27 1z m4316 -9 c0 -6 -13
-12 -30 -13 -28 -2 -38 7 -24 21 11 10 54 4 54 -8z m-5310 -10 c0 -8 -7 -15
-15 -15 -16 0 -20 12 -8 23 11 12 23 8 23 -8z m1847 -19 c-4 -9 -13 -13 -22
-10 -18 7 -20 31 -2 37 17 6 31 -9 24 -27z m3533 25 c0 -5 -9 -7 -20 -4 -11 3
-20 7 -20 9 0 2 9 4 20 4 11 0 20 -4 20 -9z m-3665 -31 c-5 -8 -11 -8 -17 -2
-6 6 -7 16 -3 22 5 8 11 8 17 2 6 -6 7 -16 3 -22z m-1509 -1 c7 -12 -15 -31
-28 -23 -4 3 -8 12 -8 20 0 17 26 19 36 3z m862 -17 c2 -14 -2 -22 -12 -22
-19 0 -29 17 -22 36 8 22 30 12 34 -14z m522 24 c0 -11 -19 -15 -25 -6 -3 5 1
10 9 10 9 0 16 -2 16 -4z m3780 -11 c0 -2 -7 -5 -15 -9 -9 -3 -15 0 -15 9 0 9
6 12 15 9 8 -4 15 -7 15 -9z m-3583 -11 c8 -21 -13 -42 -28 -27 -13 13 -5 43
11 43 6 0 13 -7 17 -16z m253 1 c0 -8 -4 -15 -10 -15 -5 0 -10 7 -10 15 0 8 5
15 10 15 6 0 10 -7 10 -15z m3245 -7 c6 -4 2 -8 -7 -8 -10 0 -18 7 -18 17 0 9
3 12 8 7 4 -5 12 -12 17 -16z m-5910 -8 c110 -5 274 -13 365 -16 91 -4 174 -8
185 -8 11 -1 31 5 43 12 20 12 26 11 41 -2 23 -21 90 -21 97 -1 8 19 30 20 37
1 7 -16 82 -25 267 -31 120 -4 267 -10 498 -20 39 -2 72 1 72 6 0 5 -4 9 -10
9 -15 0 -12 47 4 53 8 3 22 -1 33 -8 16 -12 16 -17 5 -35 -16 -27 -5 -42 12
-17 16 21 42 22 54 1 6 -10 26 -18 51 -20 57 -5 81 -20 81 -49 0 -35 -14 -38
-59 -16 -43 22 -49 23 -461 46 -146 9 -296 17 -335 20 -203 13 -970 57 -1239
70 -170 8 -312 17 -315 20 -6 6 286 -2 574 -15z m2279 12 c2 -4 1 -14 -4 -22
-7 -11 -12 -12 -21 -3 -6 6 -8 16 -5 22 8 13 23 14 30 3z m72 -61 c-11 -18
-36 -13 -36 7 0 10 3 22 7 26 10 10 37 -20 29 -33z m-136 3 c0 -8 -7 -14 -15
-14 -15 0 -21 21 -9 33 10 9 24 -2 24 -19z m450 -14 c0 -11 -4 -20 -10 -20 -5
0 -10 9 -10 20 0 11 5 20 10 20 6 0 10 -9 10 -20z m-240 -10 c0 -25 -25 -36
-45 -20 -20 16 -7 40 21 40 17 0 24 -6 24 -20z m-142 -7 c-2 -10 -10 -18 -18
-18 -8 0 -16 8 -18 18 -2 12 3 17 18 17 15 0 20 -5 18 -17z m3577 7 c3 -5 1
-10 -4 -10 -6 0 -11 5 -11 10 0 6 2 10 4 10 3 0 8 -4 11 -10z m-31 -15 c-7
-16 -24 -21 -24 -6 0 8 7 13 27 20 1 1 0 -6 -3 -14z m159 8 c-7 -2 -19 -2 -25
0 -7 3 -2 5 12 5 14 0 19 -2 13 -5z m-3633 -32 c0 -27 -19 -36 -37 -18 -18 18
-9 37 18 37 12 0 19 -7 19 -19z m-135 -11 c0 -22 -29 -18 -33 3 -3 14 1 18 15
15 10 -2 18 -10 18 -18z m9815 0 c0 -11 -6 -20 -14 -20 -9 0 -12 7 -9 20 3 11
9 20 14 20 5 0 9 -9 9 -20z m-6130 0 c0 -5 -4 -10 -10 -10 -5 0 -10 5 -10 10
0 6 5 10 10 10 6 0 10 -4 10 -10z m-3235 -20 c0 -7 -6 -15 -12 -17 -8 -3 -13
4 -13 17 0 13 5 20 13 18 6 -3 12 -11 12 -18z m3286 -3 c-10 -9 -11 -8 -5 6 3
10 9 15 12 12 3 -3 0 -11 -7 -18z m-3663 -8 c4 -19 -27 -34 -41 -20 -14 14 0
43 20 39 10 -2 19 -10 21 -19z m62 -39 c0 -23 -29 -35 -36 -15 -4 8 -4 22 0
30 7 20 36 8 36 -15z m-133 4 c8 -21 -13 -42 -28 -27 -13 13 -5 43 11 43 6 0
13 -7 17 -16z m73 -44 c0 -10 -6 -20 -12 -23 -21 -7 -38 4 -38 23 0 10 6 20
13 23 20 7 37 -4 37 -23z m64 -26 c8 -21 -1 -34 -24 -34 -20 0 -30 17 -22 38
6 17 39 15 46 -4z m-134 -14 c0 -13 -7 -20 -20 -20 -19 0 -27 20 -13 33 13 14
33 6 33 -13z m3444 -5 c-7 -17 -54 -21 -54 -4 0 6 6 9 13 6 8 -3 20 -1 28 4
19 12 19 11 13 -6z m56 7 c0 -5 -7 -9 -15 -9 -8 0 -12 4 -9 9 3 4 9 8 15 8 5
0 9 -4 9 -8z m-3432 -40 c3 -17 -2 -22 -18 -22 -25 0 -38 29 -19 41 20 13 34
6 37 -19z m3332 -2 c0 -5 -7 -10 -15 -10 -8 0 -15 5 -15 10 0 6 7 10 15 10 8
0 15 -4 15 -10z m-3400 -41 c0 -20 -24 -26 -35 -9 -4 6 -4 17 -1 25 7 20 36 7
36 -16z m138 10 c3 -17 -23 -33 -39 -23 -5 3 -9 14 -9 25 0 15 6 20 22 17 13
-2 24 -10 26 -19z m3227 -15 c17 -13 18 -16 5 -24 -26 -16 -40 -11 -40 15 0
29 7 30 35 9z m-3297 -26 c-3 -25 -17 -32 -37 -19 -19 12 -6 41 19 41 16 0 21
-5 18 -22z m70 -32 c4 -21 -14 -37 -35 -29 -14 5 -18 35 -6 47 12 12 38 1 41
-18z m-135 0 c9 -22 -18 -40 -33 -22 -6 9 -9 20 -5 26 9 15 32 12 38 -4z
m3297 -16 c0 -5 -7 -7 -15 -4 -8 4 -15 8 -15 10 0 2 7 4 15 4 8 0 15 -4 15
-10z m-3230 -30 c0 -23 -29 -35 -36 -15 -4 8 -4 22 0 30 7 20 36 8 36 -15z
m-140 -6 c0 -8 -5 -12 -10 -9 -6 4 -8 11 -5 16 9 14 15 11 15 -7z m2940 0 c0
-9 -7 -14 -17 -12 -24 4 -27 23 -3 25 12 1 20 -4 20 -13z m469 -11 c-1 -17 -3
-21 -6 -10 -2 9 -9 17 -14 17 -5 0 -9 5 -9 10 0 6 7 10 15 10 10 0 15 -9 14
-27z m-3201 -15 c-4 -30 -48 -39 -48 -10 0 24 8 32 32 32 14 0 19 -6 16 -22z
m-132 1 c9 -15 -11 -33 -30 -26 -9 4 -13 13 -10 22 7 17 30 20 40 4z m2824 7
c0 -3 -4 -8 -10 -11 -5 -3 -10 -1 -10 4 0 6 5 11 10 11 6 0 10 -2 10 -4z
m-2756 -42 c8 -21 -1 -34 -24 -34 -22 0 -33 23 -17 39 16 16 34 14 41 -5z
m-134 -8 c0 -3 -4 -8 -10 -11 -5 -3 -10 -1 -10 4 0 6 5 11 10 11 6 0 10 -2 10
-4z m2910 -6 c0 -5 -5 -10 -11 -10 -5 0 -7 5 -4 10 3 6 8 10 11 10 2 0 4 -4 4
-10z m-2714 -8 c18 -11 -2 -54 -23 -50 -22 4 -30 38 -11 49 16 11 20 11 34 1z
m-128 -25 c4 -21 -25 -34 -40 -19 -8 8 -8 16 2 27 16 19 34 15 38 -8z m3372
13 c0 -5 -5 -10 -11 -10 -5 0 -7 5 -4 10 3 6 8 10 11 10 2 0 4 -4 4 -10z
m-395 -30 c3 -5 -1 -10 -9 -10 -9 0 -16 5 -16 10 0 6 4 10 9 10 6 0 13 -4 16
-10z m-2910 -25 c0 -30 -39 -27 -43 3 -3 20 0 23 20 20 15 -2 23 -10 23 -23z
m2766 -12 c-9 -16 -10 -14 -11 12 0 21 3 26 11 18 8 -8 8 -16 0 -30z m403 28
c3 -5 -1 -12 -10 -15 -25 -10 -34 -7 -28 9 7 17 30 20 38 6z m-3310 -22 c-3
-5 -10 -7 -15 -3 -5 3 -7 10 -3 15 3 5 10 7 15 3 5 -3 7 -10 3 -15z m2946 -8
c0 -32 30 -61 63 -61 10 0 16 -4 12 -10 -5 -9 -15 -8 -52 7 -23 8 -30 10 -45
12 -9 1 -8 4 2 11 12 8 13 11 1 19 -8 5 -11 16 -6 30 9 31 25 26 25 -8z
m-2872 -23 c-3 -24 -17 -32 -36 -20 -18 12 -4 42 20 42 14 0 19 -6 16 -22z
m2988 -46 c-4 -3 -11 -1 -18 6 -8 8 -8 15 3 28 13 16 14 16 17 -5 2 -13 1 -25
-2 -29z m184 44 c0 -2 -8 -10 -17 -17 -16 -13 -17 -12 -4 4 13 16 21 21 21 13z
m-3104 -21 c8 -20 -13 -45 -32 -38 -14 5 -19 34 -7 46 11 12 33 7 39 -8z
m3174 0 c-7 -8 -16 -15 -21 -15 -5 0 -9 7 -9 15 0 9 9 15 21 15 18 0 19 -2 9
-15z m-3305 -15 c3 -5 1 -10 -4 -10 -6 0 -11 5 -11 10 0 6 2 10 4 10 3 0 8 -4
11 -10z m2895 0 c0 -5 10 -11 23 -11 16 -1 18 -2 5 -6 -10 -2 -18 -10 -19 -16
0 -7 -2 -23 -5 -36 -2 -14 1 -28 8 -33 8 -4 9 -8 2 -8 -6 0 -19 9 -29 20 -10
11 -26 20 -37 20 -10 0 -18 4 -18 9 0 15 18 23 25 11 3 -5 12 -10 20 -10 17 0
32 43 16 48 -14 5 -15 22 -1 22 6 0 10 -4 10 -10z m303 -9 c3 -15 0 -19 -14
-18 -22 1 -24 8 -7 25 15 15 15 15 21 -7z m177 4 c0 -8 -4 -15 -10 -15 -5 0
-10 7 -10 15 0 8 5 15 10 15 6 0 10 -7 10 -15z m50 5 c13 -8 13 -10 -2 -10 -9
0 -20 5 -23 10 -8 13 5 13 25 0z m-279 -23 c-10 -9 -11 -8 -5 6 3 10 9 15 12
12 3 -3 0 -11 -7 -18z m319 13 c0 -5 -5 -10 -11 -10 -5 0 -7 5 -4 10 3 6 8 10
11 10 2 0 4 -4 4 -10z m-3402 -28 c3 -16 -2 -22 -16 -22 -24 0 -35 23 -19 39
16 16 31 8 35 -17z m3232 21 c0 -5 -13 -16 -29 -25 -26 -14 -32 -14 -42 -2 -9
12 -6 14 19 14 17 0 34 5 37 10 7 12 15 13 15 3z m-301 -12 c10 -7 7 -9 -12
-8 -15 1 -27 5 -27 10 0 10 22 9 39 -2z m345 -15 c-6 -15 -64 -28 -64 -14 0 4
9 8 19 8 11 0 23 5 26 10 9 15 25 12 19 -4z m-404 -6 c0 -5 -4 -10 -10 -10 -5
0 -10 5 -10 10 0 6 5 10 10 10 6 0 10 -4 10 -10z m230 1 c0 -6 -4 -13 -10 -16
-5 -3 -10 1 -10 9 0 9 5 16 10 16 6 0 10 -4 10 -9z m-3030 -21 c0 -24 -26 -38
-42 -22 -16 16 -2 42 22 42 13 0 20 -7 20 -20z m2800 -10 c0 -5 -4 -10 -10
-10 -5 0 -10 5 -10 10 0 6 5 10 10 10 6 0 10 -4 10 -10z m-2732 -26 c3 -23
-18 -37 -43 -28 -18 7 -20 40 -2 47 23 10 42 2 45 -19z m2642 16 c0 -5 -5 -10
-11 -10 -5 0 -7 5 -4 10 3 6 8 10 11 10 2 0 4 -4 4 -10z m174 -11 c15 -14 3
-17 -31 -7 -40 10 -45 31 -5 22 15 -4 31 -10 36 -15z m195 -2 c8 12 41 25 41
15 0 -9 -50 -32 -70 -32 -12 0 -17 -9 -18 -28 0 -26 2 -28 34 -27 30 1 33 -1
19 -11 -9 -7 -27 -9 -42 -5 -24 6 -27 12 -27 57 l-1 50 29 -14 c17 -9 31 -11
35 -5z m-3146 -7 c6 -22 -7 -35 -23 -25 -15 9 -12 45 4 45 7 0 16 -9 19 -20z
m2744 4 c-3 -3 -12 -4 -19 -1 -8 3 -5 6 6 6 11 1 17 -2 13 -5z m140 -10 c-3
-3 -12 -4 -19 -1 -8 3 -5 6 6 6 11 1 17 -2 13 -5z m193 -5 c0 -6 -5 -20 -11
-31 -8 -15 -8 -22 0 -28 7 -4 9 -15 5 -25 -6 -15 -4 -17 14 -13 12 4 19 2 16
-3 -3 -5 2 -12 10 -15 9 -3 13 -10 10 -15 -3 -5 -12 -5 -22 0 -19 9 -42 4 -42
-9 0 -5 8 -11 18 -14 22 -7 28 -76 7 -76 -9 0 -12 6 -9 15 7 18 -17 20 -34 3
-9 -9 -15 -9 -24 0 -7 7 -27 12 -45 12 -18 0 -33 5 -33 10 0 6 14 10 30 10 17
0 30 5 30 11 0 5 4 8 10 4 5 -3 7 -12 3 -20 -3 -9 1 -15 11 -15 9 0 16 5 16
10 0 6 9 10 20 10 47 0 8 31 -44 35 -11 1 -22 7 -24 13 -2 7 8 9 27 7 33 -4
46 7 37 32 -5 12 -9 13 -21 3 -13 -11 -14 -10 -9 6 4 10 13 26 21 36 20 22 6
27 -49 18 -27 -4 -48 -5 -48 -3 0 13 9 18 35 20 17 1 41 6 55 12 33 13 40 13
40 0z m-3010 -29 c0 -10 -6 -20 -12 -23 -21 -7 -38 4 -38 23 0 10 6 20 13 23
20 7 37 -4 37 -23z m2764 17 c14 -8 23 -16 20 -19 -6 -7 -54 15 -54 25 0 10 4
9 34 -6z m3417 -8 c-12 -12 -25 -19 -28 -16 -8 8 20 36 36 37 10 0 8 -7 -8
-21z m-3066 1 c3 -5 2 -10 -4 -10 -5 0 -13 5 -16 10 -3 6 -2 10 4 10 5 0 13
-4 16 -10z m-455 -11 c0 -11 -21 -11 -39 0 -9 6 -5 9 13 9 14 0 26 -4 26 -9z
m425 1 c8 -13 -5 -13 -25 0 -13 8 -13 10 2 10 9 0 20 -4 23 -10z m3126 -17
c-12 -20 -14 -14 -5 12 4 9 9 14 11 11 3 -2 0 -13 -6 -23z m-3456 -3 c3 -5 1
-10 -4 -10 -6 0 -11 5 -11 10 0 6 2 10 4 10 3 0 8 -4 11 -10z m115 -1 c0 -6
-9 -9 -20 -6 -11 3 -20 1 -20 -4 0 -5 -7 -9 -15 -9 -13 0 -14 3 -3 15 15 17
58 20 58 4z m-2930 -14 c0 -8 -7 -15 -15 -15 -8 0 -15 7 -15 15 0 8 7 15 15
15 8 0 15 -7 15 -15z m2970 11 c0 -2 -3 -11 -6 -20 -9 -23 -24 -20 -24 4 0 11
7 20 15 20 8 0 15 -2 15 -4z m-137 -46 c-3 -10 -16 -20 -29 -23 -21 -4 -24 0
-24 23 0 24 3 26 29 22 22 -3 27 -8 24 -22z m367 20 c0 -5 -2 -10 -4 -10 -3 0
-8 5 -11 10 -3 6 -1 10 4 10 6 0 11 -4 11 -10z m-3142 -28 c3 -16 -2 -22 -16
-22 -24 0 -38 30 -20 42 19 12 33 4 36 -20z m2822 13 c-14 -17 -30 -20 -30 -6
0 5 8 12 18 14 9 3 19 5 21 6 2 0 -2 -6 -9 -14z m110 5 c0 -5 -5 -10 -11 -10
-5 0 -7 5 -4 10 3 6 8 10 11 10 2 0 4 -4 4 -10z m360 -10 c0 -5 -5 -10 -11
-10 -5 0 -7 5 -4 10 3 6 8 10 11 10 2 0 4 -4 4 -10z m-380 -16 c0 -2 -9 -4
-21 -4 -11 0 -18 4 -14 10 5 8 35 3 35 -6z m180 -5 c0 -11 -4 -17 -10 -14 -5
3 -10 13 -10 21 0 8 5 14 10 14 6 0 10 -9 10 -21z m-3036 5 c20 -8 21 -43 2
-50 -26 -10 -45 8 -35 34 9 24 10 25 33 16z m2616 -4 c0 -5 -10 -10 -22 -9
-22 0 -22 1 -3 9 11 5 21 9 23 9 1 1 2 -3 2 -9z m122 -32 c-6 -6 -15 -8 -19
-4 -4 4 -1 11 7 16 19 12 27 3 12 -12z m-182 2 c0 -5 -5 -10 -11 -10 -5 0 -7
5 -4 10 3 6 8 10 11 10 2 0 4 -4 4 -10z m50 0 c-19 -13 -30 -13 -30 0 0 6 10
10 23 10 18 0 19 -2 7 -10z m89 -6 c3 -4 -2 -4 -11 -1 -10 4 -18 3 -18 -2 0
-9 54 -25 78 -24 7 1 12 -6 10 -16 -2 -9 -7 -14 -12 -13 -10 4 -26 -17 -26
-35 0 -7 9 -13 20 -13 11 0 20 -5 20 -11 0 -5 5 -7 12 -3 7 4 8 3 4 -4 -4 -6
-13 -9 -21 -6 -15 6 -38 -12 -42 -34 -2 -7 8 -12 22 -12 14 0 25 5 25 11 0 5
5 7 10 4 6 -3 10 -2 10 2 0 12 38 14 45 2 4 -5 -5 -9 -20 -9 -14 0 -28 -7 -32
-16 -5 -13 -15 -15 -49 -9 -33 5 -45 3 -49 -8 -4 -9 -16 -12 -35 -9 -20 3 -30
0 -30 -8 0 -7 8 -10 20 -7 11 3 17 1 14 -4 -3 -5 -21 -7 -41 -3 -21 4 -38 2
-42 -4 -4 -7 -12 -8 -21 -2 -12 8 -11 10 5 10 16 0 17 2 5 10 -8 5 -11 12 -7
17 5 4 12 1 18 -7 8 -13 12 -11 29 10 11 14 18 30 16 36 -2 5 5 21 16 35 20
24 20 24 15 2 -3 -15 0 -23 9 -23 8 0 13 3 12 8 -2 4 0 8 5 10 16 5 27 2 27
-9 0 -5 -4 -7 -10 -4 -16 10 -12 -11 5 -25 13 -10 15 -9 15 9 0 11 5 21 10 21
21 0 9 18 -16 24 -16 4 -24 13 -22 24 1 9 -1 23 -5 30 -5 8 -2 12 8 12 9 0 13
-4 10 -10 -3 -5 3 -10 14 -10 26 0 27 9 4 26 -24 18 -50 17 -57 -1 -3 -8 -1
-15 4 -15 6 0 10 -6 10 -14 0 -16 -60 -28 -60 -12 -1 6 -12 -2 -25 -19 -26
-31 -33 -28 -15 6 8 13 7 19 0 19 -6 0 -8 5 -4 11 5 8 9 8 14 -1 6 -9 9 -9 15
-1 4 7 2 18 -5 26 -7 9 -8 15 0 20 17 11 30 -5 24 -31 -10 -40 10 -27 31 20
15 33 24 43 39 40 10 -2 21 -6 25 -10z m96 6 c3 -5 1 -10 -4 -10 -6 0 -11 5
-11 10 0 6 2 10 4 10 3 0 8 -4 11 -10z m60 1 c3 -6 -4 -9 -15 -8 -11 1 -20 5
-20 9 0 11 28 10 35 -1z m260 -12 c-8 -12 -35 -12 -35 1 0 5 7 6 17 3 12 -5
14 -3 8 7 -5 9 -4 11 4 6 6 -4 9 -12 6 -17z m-65 2 c0 -5 -7 -11 -15 -15 -15
-5 -20 5 -8 17 9 10 23 9 23 -2z m-3100 -21 c0 -11 -7 -20 -15 -20 -8 0 -15 9
-15 20 0 11 7 20 15 20 8 0 15 -9 15 -20z m2854 -5 c-4 -8 -10 -15 -15 -15 -5
0 -9 7 -9 15 0 8 7 15 15 15 9 0 12 -6 9 -15z m-7121 -10 c1 -5 -6 -11 -15
-13 -11 -2 -18 3 -18 13 0 17 30 18 33 0z m7348 -5 c6 0 5 -8 -1 -20 -6 -11
-17 -20 -25 -20 -7 0 -15 -5 -17 -12 -6 -17 -38 -19 -38 -2 0 9 4 13 9 10 5
-3 20 3 32 14 21 17 22 21 9 31 -13 9 -12 10 3 5 10 -3 23 -6 28 -6z m54 -9
c-3 -6 -11 -11 -17 -11 -6 0 -6 6 2 15 14 17 26 13 15 -4z m95 -6 c-7 -8 -16
-15 -21 -15 -5 0 -6 7 -3 15 4 8 13 15 21 15 13 0 13 -3 3 -15z m190 -1 c0 -2
-11 -4 -25 -4 -14 0 -25 4 -25 9 0 4 11 6 25 3 14 -2 25 -6 25 -8z m-567 -9
c-3 -9 -8 -14 -10 -11 -3 3 -2 9 2 15 9 16 15 13 8 -4z m-48 -15 c-3 -5 -11
-10 -16 -10 -6 0 -7 5 -4 10 3 6 11 10 16 10 6 0 7 -4 4 -10z m308 -10 c-4 -4
-19 -11 -31 -15 -23 -7 -24 -7 -5 12 10 11 24 17 31 15 7 -3 10 -8 5 -12z m40
0 c-6 -24 -23 -37 -23 -18 0 12 18 38 26 38 1 0 0 -9 -3 -20z m202 10 c3 -5
-1 -10 -10 -10 -9 0 -13 5 -10 10 3 6 8 10 10 10 2 0 7 -4 10 -10z m-3345 -21
c0 -6 -4 -7 -10 -4 -5 3 -10 11 -10 16 0 6 5 7 10 4 6 -3 10 -11 10 -16z
m3207 15 c-3 -3 -12 -4 -19 -1 -8 3 -5 6 6 6 11 1 17 -2 13 -5z m60 -26 c-3
-7 -5 -2 -5 12 0 14 2 19 5 13 2 -7 2 -19 0 -25z m-3201 -25 c-2 -10 -10 -19
-19 -21 -19 -4 -32 20 -23 43 8 22 45 2 42 -22z m2584 22 c0 -9 -6 -12 -15 -9
-8 4 -12 10 -9 15 8 14 24 10 24 -6z m327 7 c6 -4 14 -19 18 -34 5 -19 11 -25
23 -20 15 5 15 4 2 -12 -8 -11 -16 -14 -18 -7 -2 6 -11 11 -19 11 -9 0 -13 6
-10 14 4 10 1 13 -7 10 -10 -4 -14 3 -12 20 1 28 4 30 23 18z m43 -23 c0 -8 4
-8 14 0 10 8 16 9 21 1 8 -13 -20 -24 -40 -16 -17 6 -21 26 -5 26 6 0 10 -5
10 -11z m140 -21 c0 -18 -2 -20 -9 -8 -6 8 -7 18 -5 22 9 14 14 9 14 -14z
m190 13 c0 -6 -4 -13 -10 -16 -5 -3 -10 1 -10 9 0 9 5 16 10 16 6 0 10 -4 10
-9z m-724 -21 c0 -11 -4 -20 -8 -20 -4 0 -8 5 -8 11 0 5 -6 7 -12 4 -7 -4 -4
1 6 9 11 9 20 16 21 16 0 0 1 -9 1 -20z m479 11 c-3 -5 4 -12 15 -16 11 -3 20
-10 20 -15 0 -5 -11 -4 -25 2 -26 11 -30 19 -18 31 9 10 15 8 8 -2z m215 -1
c0 -5 -2 -10 -4 -10 -3 0 -8 5 -11 10 -3 6 -1 10 4 10 6 0 11 -4 11 -10z
m-413 -22 c-3 -8 -6 -5 -6 6 -1 11 2 17 5 13 3 -3 4 -12 1 -19z m293 6 c0 -8
-4 -12 -10 -9 -5 3 -10 10 -10 16 0 5 5 9 10 9 6 0 10 -7 10 -16z m17 -6 c-3
-8 -6 -5 -6 6 -1 11 2 17 5 13 3 -3 4 -12 1 -19z m20 -10 c-3 -7 -5 -2 -5 12
0 14 2 19 5 13 2 -7 2 -19 0 -25z m43 12 c0 -11 -2 -20 -4 -20 -2 0 -6 9 -9
20 -3 11 -1 20 4 20 5 0 9 -9 9 -20z m-340 -10 c0 -5 -2 -10 -4 -10 -3 0 -8 5
-11 10 -3 6 -1 10 4 10 6 0 11 -4 11 -10z m120 -10 c0 -5 -7 -7 -15 -4 -8 4
-15 8 -15 10 0 2 7 4 15 4 8 0 15 -4 15 -10z m45 1 c3 -5 -1 -16 -9 -24 -8 -8
-12 -17 -9 -21 3 -3 0 -12 -7 -21 -17 -21 -8 -19 18 4 12 10 18 22 14 26 -4 5
-1 5 6 1 22 -13 13 -44 -15 -54 -16 -5 -37 -14 -48 -18 -17 -7 -18 -5 -8 8 7
8 10 18 6 22 -4 4 -1 11 7 16 12 8 11 10 -5 10 -18 1 -17 2 4 11 17 7 22 15
18 29 -5 20 16 29 28 11z m-345 -15 c0 -2 -7 -6 -15 -10 -8 -3 -15 -1 -15 4 0
6 7 10 15 10 8 0 15 -2 15 -4z m145 -27 c28 -7 27 -8 -10 -6 -22 1 -46 7 -52
14 -20 19 -15 25 10 12 12 -7 36 -16 52 -20z m305 15 c0 -2 -11 -4 -25 -4 -14
0 -25 4 -25 9 0 4 11 6 25 3 14 -2 25 -6 25 -8z m-7487 -20 c-4 -10 -9 -12
-15 -6 -12 12 -1 35 12 27 5 -3 6 -13 3 -21z m7633 6 c8 0 14 -4 14 -9 0 -18
-35 -4 -37 15 -2 10 0 13 3 7 3 -7 12 -13 20 -13z m-553 -18 c-14 -2 -24 -13
-28 -31 -6 -28 -33 -38 -46 -18 -4 6 -17 6 -35 -1 -23 -8 -25 -11 -9 -12 11
-1 25 -2 31 -1 16 2 37 -26 29 -39 -9 -15 -25 -12 -25 5 0 8 -5 15 -11 15 -6
0 -9 -7 -5 -15 3 -10 -1 -15 -13 -15 -10 0 -18 -6 -18 -13 0 -10 10 -10 44 -3
30 7 43 16 43 27 0 23 40 13 41 -10 0 -14 1 -14 7 -1 8 18 34 20 39 3 2 -6 -5
-14 -16 -18 -11 -3 -20 -9 -20 -13 4 -29 -3 -34 -35 -29 -19 3 -36 2 -38 -3
-2 -5 -28 -5 -58 -1 -30 5 -44 9 -30 10 16 1 21 4 14 11 -7 7 -20 6 -40 -5
-19 -10 -23 -15 -11 -15 9 0 17 -4 17 -10 0 -5 17 -10 38 -11 46 -1 80 -13 64
-23 -6 -4 -29 -2 -49 3 -21 6 -57 15 -80 21 -39 10 -42 12 -30 30 6 11 19 20
27 20 8 1 26 8 40 16 l25 15 -27 -4 c-15 -2 -25 -1 -23 4 3 4 1 10 -5 14 -6 3
-10 -4 -10 -16 0 -12 -3 -19 -7 -16 -3 4 -12 2 -20 -4 -10 -9 -13 -7 -13 8 0
10 9 26 20 36 11 9 17 23 14 32 -4 8 -1 15 5 15 6 0 11 11 11 25 0 18 4 23 15
19 18 -7 20 -31 3 -37 -7 -2 -10 -8 -6 -12 12 -12 38 3 38 23 0 14 8 18 35 19
19 1 34 -2 33 -5 -2 -21 4 -32 17 -32 9 0 12 6 9 15 -4 8 -1 15 5 15 6 0 11 6
11 14 0 9 8 12 28 7 24 -5 24 -6 5 -9z m181 -25 c-3 -9 -12 -17 -19 -17 -12 0
-13 10 -6 60 1 2 8 -3 16 -11 9 -9 13 -23 9 -32z m184 26 c-2 -9 -10 -19 -18
-21 -13 -4 -13 -3 -2 10 10 13 10 17 0 21 -8 3 -6 6 5 6 12 1 17 -5 15 -16z
m-8189 -24 c-19 -10 -41 -18 -49 -19 -8 0 -1 7 15 16 17 8 34 19 39 24 5 5 14
6 19 3 5 -3 -5 -14 -24 -24z m7621 6 c0 -8 -7 -15 -15 -15 -8 0 -15 7 -15 15
0 8 7 15 15 15 8 0 15 -7 15 -15z m270 -2 c0 -5 -8 -18 -18 -31 -21 -28 -53
-21 -51 12 1 16 2 17 6 4 6 -24 25 -23 43 2 15 21 20 24 20 13z m12 -35 c-8
-8 -9 -4 -5 13 4 13 8 18 11 10 2 -7 -1 -18 -6 -23z m138 18 c0 -3 -4 -8 -10
-11 -5 -3 -10 -1 -10 4 0 6 5 11 10 11 6 0 10 -2 10 -4z m-8114 -15 c-6 -10
-102 -57 -206 -101 -36 -15 -104 -46 -152 -70 -49 -23 -94 -40 -100 -37 -8 3
-6 8 7 13 11 4 25 14 31 22 6 8 16 12 22 8 6 -3 14 -1 18 5 4 8 3 9 -4 5 -17
-10 -15 3 3 21 10 9 27 14 44 11 20 -3 27 0 24 8 -3 9 2 11 17 7 14 -4 28 2
41 15 10 12 25 19 33 16 8 -3 25 1 38 9 13 8 56 25 96 38 39 13 72 27 72 31 0
4 5 8 11 8 5 0 8 -4 5 -9z m8277 -12 c17 -19 17 -20 1 -17 -9 1 -18 11 -20 21
-3 22 -2 21 19 -4z m74 -1 c-3 -8 -6 -5 -6 6 -1 11 2 17 5 13 3 -3 4 -12 1
-19z m-147 4 c0 -4 -11 -9 -26 -10 -14 -1 -23 2 -19 8 7 12 45 14 45 2z m-114
-17 c-10 -8 -23 -12 -27 -9 -17 10 -9 20 19 22 25 1 26 1 8 -13z m-121 -5 c3
-5 -1 -10 -10 -10 -9 0 -13 5 -10 10 3 6 8 10 10 10 2 0 7 -4 10 -10z m235
-32 c0 -26 -2 -28 -20 -18 -11 6 -20 15 -20 20 0 6 -7 10 -15 10 -8 0 -15 5
-15 10 0 6 16 10 35 8 31 -2 35 -5 35 -30z m-105 -19 c4 -5 -9 -9 -29 -9 -19
0 -36 -6 -39 -12 -4 -10 -7 -10 -18 0 -10 9 -10 12 0 12 7 0 10 4 7 9 -3 5 12
9 34 9 22 0 42 -3 45 -9z m195 1 c0 -5 -7 -7 -15 -4 -8 4 -15 8 -15 10 0 2 7
4 15 4 8 0 15 -4 15 -10z m-102 -50 c-5 -27 -33 -17 -36 13 -3 26 -2 27 18 15
11 -7 19 -20 18 -28z m73 29 c11 -5 17 -15 13 -21 -4 -7 -9 -6 -15 3 -11 18
-21 5 -21 -26 0 -14 -5 -25 -10 -25 -5 0 -16 -6 -23 -14 -10 -10 -11 -16 -2
-25 8 -8 7 -11 -5 -11 -9 0 -20 9 -23 20 -3 11 -14 20 -23 20 -13 0 -14 2 -3
9 7 5 21 7 30 4 10 -2 23 7 34 26 17 30 17 31 0 32 -16 0 -16 1 2 9 27 11 24
11 46 -1z m-251 -23 c0 -3 -4 -8 -10 -11 -5 -3 -10 -1 -10 4 0 6 5 11 10 11 6
0 10 -2 10 -4z m-130 -16 c0 -13 -11 -13 -30 0 -12 8 -11 10 8 10 12 0 22 -4
22 -10z m146 -17 c-3 -20 -29 -28 -54 -17 -9 4 -20 6 -24 6 -5 -1 -8 3 -8 8 0
7 13 8 35 4 23 -4 35 -2 35 5 0 6 4 11 9 11 5 0 8 -8 7 -17z m45 4 c-1 -12
-15 -9 -19 4 -3 6 1 10 8 8 6 -3 11 -8 11 -12z m-8501 -6 c0 -5 -7 -11 -14
-14 -10 -4 -13 -1 -9 9 6 15 23 19 23 5z m8116 -10 c-4 -6 -14 -7 -23 -4 -15
6 -14 7 3 13 22 9 29 6 20 -9z m444 4 c0 -8 -4 -15 -10 -15 -5 0 -10 7 -10 15
0 8 5 15 10 15 6 0 10 -7 10 -15z m-358 -13 c10 -10 5 -11 -22 -6 -46 9 -60
22 -21 20 17 -1 36 -7 43 -14z m132 -7 c-7 -16 -24 -21 -24 -6 0 8 7 13 27 20
1 1 0 -6 -3 -14z m158 -7 c-9 -9 -15 -9 -24 0 -9 9 -7 12 12 12 19 0 21 -3 12
-12z m-363 -13 c0 -5 -5 -9 -10 -7 -5 1 -9 -5 -9 -13 0 -17 -9 -19 -30 -5 -12
7 -12 10 -1 10 8 0 11 6 7 16 -5 12 0 15 19 12 14 -2 25 -7 24 -13z m311 -5
c0 -5 -2 -10 -4 -10 -3 0 -8 5 -11 10 -3 6 -1 10 4 10 6 0 11 -4 11 -10z
m-130 -10 c0 -5 -2 -10 -4 -10 -3 0 -8 5 -11 10 -3 6 -1 10 4 10 6 0 11 -4 11
-10z m250 -10 c0 -5 -4 -10 -10 -10 -5 0 -10 5 -10 10 0 6 5 10 10 10 6 0 10
-4 10 -10z m70 -25 c0 -7 -9 -15 -20 -18 -14 -4 -20 0 -20 12 0 10 3 20 6 24
9 9 34 -4 34 -18z m-310 5 c0 -5 -7 -10 -15 -10 -8 0 -15 5 -15 10 0 6 7 10
15 10 8 0 15 -4 15 -10z m76 -10 c8 0 14 -4 14 -9 0 -4 -12 -6 -27 -3 -21 4
-25 2 -20 -12 4 -9 2 -16 -4 -16 -6 0 -7 -5 -3 -12 5 -8 2 -9 -10 -5 -10 4
-20 7 -22 7 -2 0 -4 5 -4 10 0 6 7 10 15 10 8 0 15 5 15 10 0 6 -4 10 -10 10
-5 0 -10 5 -10 11 0 5 4 8 8 5 4 -2 14 -1 22 4 9 6 16 6 18 0 2 -6 10 -10 18
-10z m-296 0 c0 -5 -7 -10 -15 -10 -8 0 -15 5 -15 10 0 6 7 10 15 10 8 0 15
-4 15 -10z m408 -21 c-7 -5 -24 -9 -38 -8 l-25 0 24 13 c28 15 64 10 39 -5z
m62 11 c0 -5 -2 -10 -4 -10 -3 0 -8 5 -11 10 -3 6 -1 10 4 10 6 0 11 -4 11
-10z m-310 -30 c0 -5 -4 -10 -10 -10 -5 0 -10 5 -10 10 0 6 5 10 10 10 6 0 10
-4 10 -10z m295 0 c3 -5 -1 -10 -9 -10 -9 0 -16 5 -16 10 0 6 4 10 9 10 6 0
13 -4 16 -10z m-468 -16 c-3 -3 -12 -4 -19 -1 -8 3 -5 6 6 6 11 1 17 -2 13 -5z
m203 -18 c0 -3 -4 -8 -10 -11 -5 -3 -10 -1 -10 4 0 6 5 11 10 11 6 0 10 -2 10
-4z m300 0 c0 -3 -4 -8 -10 -11 -5 -3 -10 -1 -10 4 0 6 5 11 10 11 6 0 10 -2
10 -4z"/>
<path d="M13121 7554 c0 -11 3 -14 6 -6 3 7 2 16 -1 19 -3 4 -6 -2 -5 -13z"/>
<path d="M13151 7503 c0 -12 -11 -29 -23 -37 -12 -9 -19 -18 -15 -22 3 -3 13
1 22 9 8 9 22 14 30 11 10 -4 15 0 15 11 0 9 -4 14 -9 10 -5 -3 -12 5 -14 17
-4 23 -4 23 -6 1z"/>
<path d="M13031 7324 c0 -11 3 -14 6 -6 3 7 2 16 -1 19 -3 4 -6 -2 -5 -13z"/>
<path d="M13013 7223 c-15 -5 -17 -23 -4 -23 5 0 11 7 15 15 3 8 4 15 3 14 -1
0 -8 -3 -14 -6z"/>
<path d="M12880 7050 c0 -5 5 -10 11 -10 5 0 7 5 4 10 -3 6 -8 10 -11 10 -2 0
-4 -4 -4 -10z"/>
<path d="M12242 6355 c0 -16 2 -22 5 -12 2 9 2 23 0 30 -3 6 -5 -1 -5 -18z"/>
<path d="M12250 6293 c1 -22 30 -44 50 -38 20 7 20 7 -4 26 -25 19 -46 25 -46
12z"/>
<path d="M12105 5904 c-9 -9 -13 -24 -10 -32 3 -8 0 -19 -7 -23 -10 -6 -8 -12
7 -22 30 -23 66 4 62 47 -3 46 -24 58 -52 30z"/>
<path d="M12530 5900 c0 -5 5 -10 10 -10 6 0 10 5 10 10 0 6 -4 10 -10 10 -5
0 -10 -4 -10 -10z"/>
<path d="M12488 5793 c7 -3 16 -2 19 1 4 3 -2 6 -13 5 -11 0 -14 -3 -6 -6z"/>
<path d="M12270 5280 c0 -5 5 -10 10 -10 6 0 10 5 10 10 0 6 -4 10 -10 10 -5
0 -10 -4 -10 -10z"/>
<path d="M12090 5140 c0 -5 5 -10 10 -10 6 0 10 5 10 10 0 6 -4 10 -10 10 -5
0 -10 -4 -10 -10z"/>
<path d="M14280 4460 c0 -5 5 -10 10 -10 6 0 10 5 10 10 0 6 -4 10 -10 10 -5
0 -10 -4 -10 -10z"/>
<path d="M14480 4459 c0 -5 5 -7 10 -4 6 3 10 8 10 11 0 2 -4 4 -10 4 -5 0
-10 -5 -10 -11z"/>
<path d="M14360 4434 c0 -9 5 -14 12 -12 18 6 21 28 4 28 -9 0 -16 -7 -16 -16z"/>
<path d="M14445 4429 c-4 -11 -4 -23 -1 -26 3 -4 6 1 6 10 0 10 5 17 10 17 6
0 10 5 10 10 0 18 -19 10 -25 -11z"/>
<path d="M14170 4400 c0 -5 5 -10 10 -10 6 0 10 5 10 10 0 6 -4 10 -10 10 -5
0 -10 -4 -10 -10z"/>
<path d="M14400 4385 c-20 -24 -6 -28 15 -5 10 11 13 20 8 20 -6 0 -16 -7 -23
-15z"/>
<path d="M14355 4340 c-3 -5 -2 -10 4 -10 5 0 13 5 16 10 3 6 2 10 -4 10 -5 0
-13 -4 -16 -10z"/>
<path d="M14154 4226 c-14 -10 -23 -11 -32 -4 -9 8 -16 8 -23 1 -6 -6 -30 -8
-53 -6 -40 5 -44 3 -50 -21 -6 -25 -26 -37 -26 -16 0 6 5 10 10 10 6 0 10 5
10 11 0 6 -7 8 -15 5 -9 -3 -18 1 -22 9 -4 12 -9 13 -19 4 -18 -14 -18 -29 -1
-29 7 0 19 -9 27 -20 13 -18 15 -18 32 -3 12 11 40 18 78 19 61 3 134 29 124
45 -7 13 -17 11 -40 -5z"/>
<path d="M13110 500 c-18 -11 -3 -29 20 -23 11 3 20 9 20 13 0 12 -26 19 -40
10z"/>
<path d="M13080 350 c-12 -7 -12 -12 -3 -21 10 -10 14 -9 19 5 8 22 2 27 -16
16z"/>
<path d="M13156 264 c-9 -24 -8 -26 13 -14 11 5 31 10 46 10 15 0 24 4 20 10
-10 17 -72 12 -79 -6z"/>
<path d="M4985 220 c-8 -13 5 -13 25 0 13 8 13 10 -2 10 -9 0 -20 -4 -23 -10z"/>
<path d="M13520 300 c0 -5 5 -10 10 -10 6 0 10 5 10 10 0 6 -4 10 -10 10 -5 0
-10 -4 -10 -10z"/>
<path d="M14936 4269 c-16 -19 -32 -29 -41 -25 -11 4 -15 -1 -15 -17 0 -18 -2
-19 -11 -7 -9 12 -10 12 -5 -3 3 -10 6 -24 6 -30 0 -8 3 -8 8 -2 13 20 61 45
66 36 7 -11 46 -2 46 11 0 5 -9 6 -20 3 -14 -5 -20 -2 -20 10 0 9 4 14 9 11 5
-3 9 6 9 19 0 14 -2 25 -3 25 -2 0 -15 -14 -29 -31z"/>
<path d="M14765 4270 c-3 -5 -2 -10 4 -10 5 0 13 5 16 10 3 6 2 10 -4 10 -5 0
-13 -4 -16 -10z"/>
<path d="M15000 4254 c0 -15 26 -19 34 -5 3 5 -3 11 -14 14 -13 3 -20 0 -20
-9z"/>
<path d="M15175 4250 c-3 -5 -1 -11 5 -15 5 -3 10 -3 10 2 0 4 4 2 9 -6 5 -7
11 -9 14 -4 3 5 -3 14 -13 21 -11 7 -21 8 -25 2z"/>
<path d="M15240 4240 c0 -5 5 -10 10 -10 6 0 10 5 10 10 0 6 -4 10 -10 10 -5
0 -10 -4 -10 -10z"/>
<path d="M14725 4227 c-12 -10 -14 -16 -7 -21 7 -4 12 -2 12 3 0 6 7 11 15 11
8 0 15 5 15 10 0 14 -13 13 -35 -3z"/>
<path d="M14812 4180 c-12 -11 -26 -20 -32 -20 -5 0 -10 -7 -10 -15 0 -8 3
-15 7 -15 11 0 73 51 73 61 0 15 -15 11 -38 -11z"/>
<path d="M15438 4193 c7 -3 16 -2 19 1 4 3 -2 6 -13 5 -11 0 -14 -3 -6 -6z"/>
<path d="M14858 4153 c7 -3 16 -2 19 1 4 3 -2 6 -13 5 -11 0 -14 -3 -6 -6z"/>
<path d="M14738 4110 c-26 -24 -22 -35 4 -10 12 11 20 22 17 24 -2 2 -12 -4
-21 -14z"/>
<path d="M14420 3974 c-41 -52 -79 -101 -85 -107 -30 -36 -75 -107 -68 -107 5
0 33 35 63 77 30 43 71 96 90 118 51 58 92 115 83 115 -4 0 -42 -43 -83 -96z"/>
<path d="M14617 4024 c-8 -8 1 -24 14 -24 5 0 9 7 9 15 0 15 -12 20 -23 9z"/>
<path d="M15660 3920 c0 -5 5 -10 11 -10 5 0 7 5 4 10 -3 6 -8 10 -11 10 -2 0
-4 -4 -4 -10z"/>
<path d="M14515 3910 c-3 -5 -1 -10 4 -10 6 0 11 5 11 10 0 6 -2 10 -4 10 -3
0 -8 -4 -11 -10z"/>
<path d="M15647 3885 c-15 -11 -16 -13 -2 -19 9 -3 18 1 22 10 8 21 1 25 -20
9z"/>
<path d="M15680 3850 c0 -5 5 -10 10 -10 6 0 10 5 10 10 0 6 -4 10 -10 10 -5
0 -10 -4 -10 -10z"/>
<path d="M15708 3810 c12 -11 24 -20 28 -20 4 0 -1 9 -11 20 -10 11 -23 20
-28 20 -6 0 -1 -9 11 -20z"/>
<path d="M15676 3802 c-3 -5 1 -9 9 -9 8 0 12 4 9 9 -3 4 -7 8 -9 8 -2 0 -6
-4 -9 -8z"/>
<path d="M15658 3773 c7 -3 16 -2 19 1 4 3 -2 6 -13 5 -11 0 -14 -3 -6 -6z"/>
<path d="M15681 3757 c-9 -12 -7 -14 9 -13 11 0 21 5 21 11 1 16 -17 17 -30 2z"/>
<path d="M15714 3728 c-4 -6 2 -17 12 -25 19 -14 19 -14 0 -28 -18 -13 -16
-14 17 -13 24 1 37 6 37 15 0 8 12 13 29 13 17 0 33 5 37 12 5 8 -3 9 -29 5
-44 -7 -77 1 -77 19 0 17 -16 18 -26 2z"/>
<path d="M14150 3578 c-81 -143 -111 -198 -105 -198 7 0 89 130 134 213 66
123 43 110 -29 -15z"/>
<path d="M15620 3662 c0 -4 9 -13 20 -20 12 -7 20 -8 20 -2 0 5 5 10 11 10 5
0 7 -6 3 -12 -6 -10 -4 -10 7 0 10 9 10 15 1 24 -10 10 -15 10 -23 -2 -8 -11
-12 -12 -16 -2 -5 13 -23 17 -23 4z"/>
<path d="M15643 3585 c0 -22 2 -30 4 -17 2 12 2 30 0 40 -3 9 -5 -1 -4 -23z"/>
<path d="M12827 3462 c-65 -163 -153 -436 -162 -500 -4 -28 -10 -50 -15 -47
-4 2 -7 -21 -7 -53 0 -31 -2 -80 -3 -109 -3 -37 1 -56 13 -68 9 -9 17 -28 18
-43 0 -15 4 -36 8 -46 8 -21 31 117 31 189 0 46 21 184 44 295 22 100 85 350
96 375 12 28 32 117 27 121 -2 2 -24 -49 -50 -114z"/>
<path d="M15757 3549 c7 -7 15 -10 18 -7 3 3 -2 9 -12 12 -14 6 -15 5 -6 -5z"/>
<path d="M15855 3550 c-3 -5 1 -10 9 -10 9 0 16 5 16 10 0 6 -4 10 -9 10 -6 0
-13 -4 -16 -10z"/>
<path d="M15540 3468 c-19 -27 -20 -30 -3 -15 11 9 27 17 36 17 10 0 14 5 11
15 -9 22 -18 19 -44 -17z"/>
<path d="M15695 3480 c3 -5 8 -10 11 -10 2 0 4 5 4 10 0 6 -5 10 -11 10 -5 0
-7 -4 -4 -10z"/>
<path d="M15975 3480 c4 -6 11 -8 16 -5 14 9 11 15 -7 15 -8 0 -12 -5 -9 -10z"/>
<path d="M15730 3470 c0 -5 5 -10 10 -10 6 0 10 5 10 10 0 6 -4 10 -10 10 -5
0 -10 -4 -10 -10z"/>
<path d="M15775 3460 c3 -5 8 -10 11 -10 2 0 4 5 4 10 0 6 -5 10 -11 10 -5 0
-7 -4 -4 -10z"/>
<path d="M15640 3434 c0 -8 5 -12 10 -9 6 3 10 10 10 16 0 5 -4 9 -10 9 -5 0
-10 -7 -10 -16z"/>
<path d="M15740 3446 c0 -2 7 -7 16 -10 8 -3 12 -2 9 4 -6 10 -25 14 -25 6z"/>
<path d="M15610 3416 c11 -30 3 -38 -22 -25 -19 10 -38 5 -38 -12 0 -5 7 -9
16 -9 12 0 14 -7 9 -30 -5 -22 -3 -32 9 -36 21 -8 49 3 41 16 -5 8 -11 8 -20
0 -9 -8 -12 -6 -10 7 3 30 16 53 31 53 17 0 18 14 4 41 -15 28 -31 24 -20 -5z"/>
<path d="M15810 3410 c28 -21 33 -20 24 4 -3 9 -16 16 -28 16 -20 0 -20 -1 4
-20z"/>
<path d="M15723 3413 c11 -3 16 -11 13 -18 -3 -9 0 -12 8 -9 24 9 14 34 -13
33 -18 -1 -21 -3 -8 -6z"/>
<path d="M15786 3365 c4 -8 10 -15 15 -15 5 0 9 7 9 15 0 8 -7 15 -15 15 -9 0
-12 -6 -9 -15z"/>
<path d="M13821 3361 c-8 -6 -9 -11 -3 -15 6 -3 14 -1 17 5 9 14 2 20 -14 10z"/>
<path d="M15737 3364 c-8 -8 1 -24 14 -24 5 0 9 7 9 15 0 15 -12 20 -23 9z"/>
<path d="M13765 3327 c-11 -9 -15 -19 -10 -27 6 -10 4 -12 -9 -7 -18 7 -177
-63 -204 -90 -7 -7 -18 -13 -23 -13 -18 0 -24 -3 -36 -19 -9 -12 -9 -18 0 -23
20 -13 43 -9 67 12 13 11 29 20 36 20 7 0 16 5 19 10 4 7 -3 8 -22 4 -43 -10
-18 10 50 40 31 14 57 21 57 15 0 -5 5 -9 10 -9 6 0 10 9 10 21 0 14 5 19 14
16 8 -3 28 1 44 9 33 16 61 44 44 44 -5 0 -15 -7 -22 -15 -7 -8 -17 -15 -23
-15 -5 0 -2 9 8 20 21 23 17 26 -10 7z m-225 -157 c-14 -11 -32 -20 -40 -20
-10 0 -7 7 10 20 14 11 32 20 40 20 10 0 7 -7 -10 -20z"/>
<path d="M15650 3330 c0 -5 5 -10 10 -10 6 0 10 5 10 10 0 6 -4 10 -10 10 -5
0 -10 -4 -10 -10z"/>
<path d="M15455 3304 c-14 -11 -15 -16 -3 -36 l13 -23 3 28 c3 28 22 39 22 12
0 -8 7 -15 17 -15 14 0 14 -2 -2 -20 -18 -20 -17 -20 13 -20 18 0 32 4 32 9 0
21 -13 41 -26 41 -8 0 -14 5 -14 11 0 6 7 9 15 6 8 -4 17 -2 20 2 8 14 -72 18
-90 5z"/>
<path d="M15408 3286 c-3 -14 -2 -26 3 -26 14 0 20 20 11 36 -8 14 -10 12 -14
-10z"/>
<path d="M15304 3268 c-3 -5 -3 -12 0 -15 3 -4 6 -1 6 6 0 7 9 9 25 5 14 -3
25 -2 25 4 0 12 -48 13 -56 0z"/>
<path d="M15250 3250 c0 -5 5 -10 10 -10 6 0 10 5 10 10 0 6 -4 10 -10 10 -5
0 -10 -4 -10 -10z"/>
<path d="M13630 3220 c-8 -5 -12 -11 -10 -14 3 -2 14 2 24 10 22 15 10 19 -14
4z"/>
<path d="M13373 3127 c-63 -22 -87 -44 -35 -34 20 5 16 1 -13 -12 -67 -31 -89
-36 -82 -18 4 11 2 14 -7 11 -8 -3 -17 -1 -20 5 -4 6 -14 7 -22 4 -13 -5 -13
-7 -2 -14 10 -7 8 -9 -7 -9 -22 -1 -58 -24 -49 -32 3 -3 -11 -9 -31 -12 -33
-7 -39 -15 -38 -54 1 -9 -2 -10 -12 -2 -8 6 -11 19 -8 27 4 10 2 14 -5 9 -6
-3 -9 -19 -7 -34 2 -15 4 -32 4 -39 1 -7 8 -10 16 -7 8 4 15 1 15 -5 0 -6 5
-11 10 -11 6 0 9 3 8 8 -7 19 92 89 106 75 3 -4 6 0 6 8 0 17 60 49 91 49 11
0 22 7 25 15 4 9 11 15 18 14 6 -1 22 2 36 8 14 6 34 12 44 14 11 2 21 10 24
18 3 9 -2 11 -17 6 -12 -4 -21 -2 -21 4 0 6 11 11 25 11 14 0 25 5 25 10 0 13
-2 12 -77 -13z"/>
<path d="M14987 3143 c-4 -3 -7 -11 -7 -17 0 -6 5 -5 12 2 6 6 9 14 7 17 -3 3
-9 2 -12 -2z"/>
<path d="M13459 3113 c-13 -16 -12 -17 4 -4 16 13 21 21 13 21 -2 0 -10 -8
-17 -17z"/>
<path d="M14830 3084 c0 -8 5 -12 10 -9 6 3 10 10 10 16 0 5 -4 9 -10 9 -5 0
-10 -7 -10 -16z"/>
<path d="M13278 3083 c7 -3 16 -2 19 1 4 3 -2 6 -13 5 -11 0 -14 -3 -6 -6z"/>
<path d="M14965 3080 c3 -5 16 -10 28 -10 18 0 19 2 7 10 -20 13 -43 13 -35 0z"/>
<path d="M14965 3050 c-3 -5 3 -10 15 -10 12 0 18 5 15 10 -3 6 -10 10 -15 10
-5 0 -12 -4 -15 -10z"/>
<path d="M13218 2993 c7 -3 16 -2 19 1 4 3 -2 6 -13 5 -11 0 -14 -3 -6 -6z"/>
<path d="M14750 2935 c-7 -8 -8 -15 -2 -15 5 0 15 7 22 15 7 8 8 15 2 15 -5 0
-15 -7 -22 -15z"/>
<path d="M13118 2919 c-21 -23 -6 -26 16 -3 9 8 16 17 16 20 0 9 -16 1 -32
-17z"/>
<path d="M14978 2906 c-22 -16 -23 -26 -4 -26 7 0 16 9 19 20 3 11 4 20 4 20
-1 0 -10 -7 -19 -14z"/>
<path d="M14965 2860 c3 -5 10 -10 16 -10 5 0 9 5 9 10 0 6 -7 10 -16 10 -8 0
-12 -4 -9 -10z"/>
<path d="M14845 2840 c3 -5 8 -10 11 -10 2 0 4 5 4 10 0 6 -5 10 -11 10 -5 0
-7 -4 -4 -10z"/>
<path d="M14765 2830 c4 -6 11 -8 16 -5 14 9 11 15 -7 15 -8 0 -12 -5 -9 -10z"/>
<path d="M14810 2829 c0 -5 5 -7 10 -4 6 3 10 8 10 11 0 2 -4 4 -10 4 -5 0
-10 -5 -10 -11z"/>
<path d="M12622 2800 c0 -14 2 -19 5 -12 2 6 2 18 0 25 -3 6 -5 1 -5 -13z"/>
<path d="M14625 2760 c3 -5 8 -10 11 -10 2 0 4 5 4 10 0 6 -5 10 -11 10 -5 0
-7 -4 -4 -10z"/>
<path d="M14740 2760 c0 -5 5 -10 10 -10 6 0 10 5 10 10 0 6 -4 10 -10 10 -5
0 -10 -4 -10 -10z"/>
<path d="M12612 2740 c0 -14 2 -19 5 -12 2 6 2 18 0 25 -3 6 -5 1 -5 -13z"/>
<path d="M11875 2600 c3 -25 7 -56 9 -70 2 -14 7 -56 11 -95 3 -38 13 -89 21
-113 8 -23 14 -56 14 -72 0 -34 9 -60 21 -60 26 0 -5 272 -41 362 -38 94 -40
97 -35 48z"/>
<path d="M14365 2600 c3 -5 8 -10 11 -10 2 0 4 5 4 10 0 6 -5 10 -11 10 -5 0
-7 -4 -4 -10z"/>
<path d="M14310 2339 c0 -5 5 -7 10 -4 6 3 10 8 10 11 0 2 -4 4 -10 4 -5 0
-10 -5 -10 -11z"/>
<path d="M13830 2261 c0 -5 5 -13 10 -16 6 -3 10 -2 10 4 0 5 -4 13 -10 16 -5
3 -10 2 -10 -4z"/>
<path d="M14243 2186 c0 -8 6 -12 14 -9 7 3 10 9 7 14 -8 14 -21 11 -21 -5z"/>
<path d="M14154 2090 c0 -13 4 -16 10 -10 7 7 7 13 0 20 -6 6 -10 3 -10 -10z"/>
<path d="M14040 2041 c0 -5 5 -13 10 -16 6 -3 10 -2 10 4 0 5 -4 13 -10 16 -5
3 -10 2 -10 -4z"/>
<path d="M14084 2035 c-10 -8 -14 -15 -8 -15 6 0 17 7 24 15 16 19 9 19 -16 0z"/>
<path d="M14135 2040 c-3 -5 -1 -10 4 -10 6 0 11 5 11 10 0 6 -2 10 -4 10 -3
0 -8 -4 -11 -10z"/>
<path d="M14020 2012 c0 -12 19 -26 26 -19 2 2 -2 10 -11 17 -9 8 -15 8 -15 2z"/>
<path d="M14078 1988 c-10 -12 -18 -27 -18 -32 0 -6 7 -1 15 11 17 24 56 38
48 17 -3 -8 0 -14 6 -14 6 0 11 9 11 20 0 28 -40 26 -62 -2z"/>
<path d="M13970 1980 c0 -5 5 -10 11 -10 5 0 7 5 4 10 -3 6 -8 10 -11 10 -2 0
-4 -4 -4 -10z"/>
<path d="M14096 1932 c-4 -18 -5 -36 -2 -39 3 -4 6 2 6 11 0 12 5 16 15 12 8
-3 15 -1 15 4 0 6 -4 10 -9 10 -5 0 -11 8 -13 18 -3 11 -7 5 -12 -16z"/>
<path d="M13920 1940 c0 -5 5 -10 10 -10 6 0 10 5 10 10 0 6 -4 10 -10 10 -5
0 -10 -4 -10 -10z"/>
<path d="M14055 1930 c-17 -7 -17 -9 -2 -9 20 -1 23 -17 5 -24 -8 -3 -6 -6 5
-6 12 -1 17 7 17 24 0 14 -1 25 -2 24 -2 0 -12 -4 -23 -9z"/>
<path d="M13035 1910 c-3 -5 -1 -10 4 -10 6 0 11 5 11 10 0 6 -2 10 -4 10 -3
0 -8 -4 -11 -10z"/>
<path d="M13081 1894 c0 -11 3 -14 6 -6 3 7 2 16 -1 19 -3 4 -6 -2 -5 -13z"/>
<path d="M13150 1906 c0 -2 7 -7 16 -10 8 -3 12 -2 9 4 -6 10 -25 14 -25 6z"/>
<path d="M14010 1890 c0 -5 5 -10 10 -10 6 0 10 5 10 10 0 6 -4 10 -10 10 -5
0 -10 -4 -10 -10z"/>
<path d="M14118 1883 c7 -3 16 -2 19 1 4 3 -2 6 -13 5 -11 0 -14 -3 -6 -6z"/>
<path d="M13155 1840 c-4 -6 -10 -8 -15 -5 -4 3 -10 -4 -13 -14 -6 -24 -44
-18 -50 8 -3 12 -7 9 -15 -11 -8 -20 -16 -26 -29 -22 -17 5 -17 5 0 -6 11 -7
23 -8 30 -3 7 5 24 8 40 7 18 -2 35 5 52 22 14 14 25 27 25 29 0 9 -19 5 -25
-5z"/>
<path d="M13081 1773 c0 -7 -12 -18 -26 -25 -14 -8 -21 -18 -17 -25 12 -19 55
19 49 43 -2 10 -5 14 -6 7z"/>
<path d="M13115 1760 c3 -5 8 -10 11 -10 2 0 4 5 4 10 0 6 -5 10 -11 10 -5 0
-7 -4 -4 -10z"/>
<path d="M13602 1731 c-11 -7 -11 -9 2 -14 10 -4 16 -1 16 8 0 17 -1 17 -18 6z"/>
<path d="M13857 1724 c3 -7 9 -14 14 -14 14 0 10 17 -5 23 -10 4 -13 1 -9 -9z"/>
<path d="M17480 1736 c0 -2 8 -10 18 -17 15 -13 16 -12 3 4 -13 16 -21 21 -21
13z"/>
<path d="M13083 1716 c-13 -6 -23 -16 -23 -23 0 -7 -6 -12 -12 -10 -8 1 -13
-8 -13 -21 0 -13 -8 -30 -18 -37 -18 -13 -18 -14 3 -25 17 -9 21 -9 19 2 -3
25 1 38 12 38 5 0 7 -5 3 -12 -5 -7 -3 -8 5 -4 9 6 8 13 -5 27 -16 18 -16 19
3 19 11 0 28 9 38 20 10 11 14 20 9 20 -5 0 -2 5 6 10 20 13 1 10 -27 -4z"/>
<path d="M13800 1704 c-17 -10 -20 -14 -8 -14 23 0 48 11 48 21 0 12 -9 10
-40 -7z"/>
<path d="M13880 1696 c0 -2 14 -6 30 -8 17 -3 30 -1 30 4 0 4 -13 8 -30 8 -16
0 -30 -2 -30 -4z"/>
<path d="M12692 1610 c-2 -101 75 -890 88 -890 5 0 27 62 43 120 2 8 0 24 -6
34 -7 15 -5 22 8 32 17 13 17 14 -6 23 l-24 9 25 11 25 10 -22 7 c-23 6 -27
14 -24 47 1 9 -3 17 -9 17 -7 0 -10 6 -7 14 3 8 1 31 -4 52 -6 20 -13 46 -16
58 -8 33 -31 186 -37 241 -2 28 -9 82 -15 120 -6 39 -12 90 -14 115 -3 35 -4
30 -5 -20z"/>
<path d="M13087 1664 c-4 -4 -7 -14 -7 -23 0 -11 3 -12 11 -4 6 6 10 16 7 23
-2 6 -7 8 -11 4z"/>
<path d="M10850 1650 c0 -5 5 -10 10 -10 6 0 10 5 10 10 0 6 -4 10 -10 10 -5
0 -10 -4 -10 -10z"/>
<path d="M10940 1649 c0 -5 5 -7 10 -4 6 3 10 8 10 11 0 2 -4 4 -10 4 -5 0
-10 -5 -10 -11z"/>
<path d="M13800 1644 c0 -8 4 -13 9 -10 5 4 12 0 14 -6 4 -8 6 -7 6 3 1 9 -6
19 -14 23 -9 3 -15 0 -15 -10z"/>
<path d="M13700 1640 c0 -5 7 -10 16 -10 8 0 12 5 9 10 -3 6 -10 10 -16 10 -5
0 -9 -4 -9 -10z"/>
<path d="M13856 1633 c-6 -14 -5 -15 5 -6 7 7 10 15 7 18 -3 3 -9 -2 -12 -12z"/>
<path d="M11010 1614 c0 -9 5 -14 12 -12 18 6 21 28 4 28 -9 0 -16 -7 -16 -16z"/>
<path d="M10666 1611 c-4 -7 -5 -15 -2 -18 9 -9 19 4 14 18 -4 11 -6 11 -12 0z"/>
<path d="M13061 1604 c-7 -8 -10 -18 -7 -21 7 -7 36 16 36 28 0 13 -13 10 -29
-7z"/>
<path d="M13415 1610 c-3 -5 -2 -10 4 -10 5 0 13 5 16 10 3 6 2 10 -4 10 -5 0
-13 -4 -16 -10z"/>
<path d="M13890 1597 c-12 -21 -12 -21 6 -7 10 8 20 15 22 16 2 1 -1 4 -5 7
-5 3 -15 -4 -23 -16z"/>
<path d="M13825 1589 c-4 -6 -4 -13 0 -17 3 -3 10 0 15 8 8 13 10 12 10 -2 0
-14 -9 -18 -40 -18 -22 0 -40 -3 -40 -7 0 -12 62 -9 85 4 16 9 17 13 6 27 -16
19 -27 20 -36 5z"/>
<path d="M13370 1560 c0 -6 7 -10 15 -10 8 0 15 2 15 4 0 2 -7 6 -15 10 -8 3
-15 1 -15 -4z"/>
<path d="M13410 1556 c0 -2 7 -7 16 -10 8 -3 12 -2 9 4 -6 10 -25 14 -25 6z"/>
<path d="M11015 1540 c-3 -5 -1 -10 4 -10 6 0 11 5 11 10 0 6 -2 10 -4 10 -3
0 -8 -4 -11 -10z"/>
<path d="M13625 1534 c9 -9 19 -13 23 -10 3 4 0 11 -8 16 -24 15 -33 11 -15
-6z"/>
<path d="M13734 1539 c-3 -6 0 -15 7 -20 10 -6 11 -9 2 -9 -7 0 -13 -8 -13
-17 1 -16 2 -16 15 1 17 22 20 56 6 56 -6 0 -13 -5 -17 -11z"/>
<path d="M13365 1520 c27 -12 35 -12 35 0 0 6 -12 10 -27 9 -25 0 -26 -1 -8
-9z"/>
<path d="M13790 1521 c0 -10 36 -21 44 -14 3 3 3 10 0 14 -7 12 -44 12 -44 0z"/>
<path d="M13300 1510 c0 -5 5 -10 11 -10 5 0 7 5 4 10 -3 6 -8 10 -11 10 -2 0
-4 -4 -4 -10z"/>
<path d="M13540 1516 c0 -2 7 -7 16 -10 8 -3 12 -2 9 4 -6 10 -25 14 -25 6z"/>
<path d="M13623 1485 c0 -14 3 -25 8 -25 5 0 9 9 9 19 0 11 -4 22 -9 25 -5 3
-8 -6 -8 -19z"/>
<path d="M13368 1493 c7 -3 16 -2 19 1 4 3 -2 6 -13 5 -11 0 -14 -3 -6 -6z"/>
<path d="M13765 1487 c-15 -12 -16 -15 -4 -22 8 -5 11 -5 7 0 -4 4 0 14 10 21
23 18 11 18 -13 1z"/>
<path d="M12980 1479 c0 -5 5 -7 10 -4 6 3 10 8 10 11 0 2 -4 4 -10 4 -5 0
-10 -5 -10 -11z"/>
<path d="M13020 1471 c-6 -12 -7 -21 -1 -21 10 0 24 30 17 37 -2 3 -9 -5 -16
-16z"/>
<path d="M13655 1480 c-3 -6 1 -7 9 -4 18 7 21 14 7 14 -6 0 -13 -4 -16 -10z"/>
<path d="M13306 1464 c-5 -14 -4 -15 9 -4 17 14 19 20 6 20 -5 0 -12 -7 -15
-16z"/>
<path d="M13340 1465 c-7 -9 -8 -15 -2 -15 5 0 12 7 16 15 3 8 4 15 2 15 -2 0
-9 -7 -16 -15z"/>
<path d="M13403 1462 c-7 -5 -2 -12 13 -19 13 -6 26 -7 29 -3 8 12 -28 30 -42
22z"/>
<path d="M13475 1430 c3 -5 10 -10 16 -10 5 0 9 5 9 10 0 6 -7 10 -16 10 -8 0
-12 -4 -9 -10z"/>
<path d="M10806 1413 c-3 -10 -9 -24 -12 -30 -3 -7 -1 -13 4 -13 5 0 12 8 16
18 3 9 9 23 12 30 3 6 1 12 -4 12 -5 0 -12 -8 -16 -17z"/>
<path d="M13660 1420 c0 -5 7 -7 15 -4 8 4 15 8 15 10 0 2 -7 4 -15 4 -8 0
-15 -4 -15 -10z"/>
<path d="M10550 1404 c0 -9 5 -14 12 -12 18 6 21 28 4 28 -9 0 -16 -7 -16 -16z"/>
<path d="M10600 1410 c0 -5 5 -10 10 -10 6 0 10 5 10 10 0 6 -4 10 -10 10 -5
0 -10 -4 -10 -10z"/>
<path d="M13705 1410 c-3 -5 -1 -10 4 -10 6 0 11 5 11 10 0 6 -2 10 -4 10 -3
0 -8 -4 -11 -10z"/>
<path d="M13360 1399 c0 -5 -6 -7 -12 -3 -10 6 -10 4 0 -8 10 -13 10 -17 0
-21 -8 -3 -6 -6 6 -6 12 -1 16 4 12 14 -3 8 -1 15 4 15 6 0 10 5 10 10 0 6 -4
10 -10 10 -5 0 -10 -5 -10 -11z"/>
<path d="M13475 1400 c25 -11 58 -12 51 -2 -2 4 -19 8 -38 9 -27 2 -29 0 -13
-7z"/>
<path d="M13305 1390 c-3 -5 -2 -10 4 -10 5 0 13 5 16 10 3 6 2 10 -4 10 -5 0
-13 -4 -16 -10z"/>
<path d="M12988 1383 c7 -3 16 -2 19 1 4 3 -2 6 -13 5 -11 0 -14 -3 -6 -6z"/>
<path d="M13441 1373 c-1 -35 -12 -52 -27 -46 -9 3 -12 13 -9 24 4 13 1 19 -8
19 -21 0 -29 -50 -8 -52 67 -6 68 -6 63 19 -2 13 1 23 7 23 6 0 11 5 11 11 0
5 -4 8 -9 5 -5 -4 -12 0 -14 6 -3 7 -6 3 -6 -9z"/>
<path d="M13560 1380 c0 -5 5 -10 10 -10 6 0 10 5 10 10 0 6 -4 10 -10 10 -5
0 -10 -4 -10 -10z"/>
<path d="M12425 1360 c3 -5 8 -10 11 -10 2 0 4 5 4 10 0 6 -5 10 -11 10 -5 0
-7 -4 -4 -10z"/>
<path d="M13310 1350 c0 -5 9 -12 21 -15 20 -7 20 -7 2 -21 -17 -14 -16 -14 5
-4 29 14 28 24 -3 38 -14 6 -25 7 -25 2z"/>
<path d="M10810 1340 c0 -5 5 -10 10 -10 6 0 10 5 10 10 0 6 -4 10 -10 10 -5
0 -10 -4 -10 -10z"/>
<path d="M12971 1334 c0 -11 3 -14 6 -6 3 7 2 16 -1 19 -3 4 -6 -2 -5 -13z"/>
<path d="M13267 1335 c-23 -17 -21 -22 8 -21 30 2 36 8 21 22 -9 8 -17 8 -29
-1z"/>
<path d="M13475 1340 c3 -5 8 -10 11 -10 2 0 4 5 4 10 0 6 -5 10 -11 10 -5 0
-7 -4 -4 -10z"/>
<path d="M13517 1337 c3 -5 -1 -13 -8 -18 -7 -4 -10 -11 -6 -15 3 -4 13 -1 21
5 8 7 24 10 36 6 11 -4 20 -2 20 4 0 6 -7 11 -15 11 -8 0 -15 4 -15 9 0 6 -9
9 -19 8 -11 0 -17 -5 -14 -10z"/>
<path d="M11020 1310 c0 -5 5 -10 11 -10 5 0 7 5 4 10 -3 6 -8 10 -11 10 -2 0
-4 -4 -4 -10z"/>
<path d="M13470 1310 c0 -5 5 -10 11 -10 5 0 7 5 4 10 -3 6 -8 10 -11 10 -2 0
-4 -4 -4 -10z"/>
<path d="M13590 1300 c0 -5 5 -10 11 -10 5 0 7 5 4 10 -3 6 -8 10 -11 10 -2 0
-4 -4 -4 -10z"/>
<path d="M10530 1291 c0 -5 7 -11 15 -15 8 -3 15 -12 15 -20 0 -10 6 -13 16
-9 15 5 15 7 0 15 -9 5 -16 16 -16 23 0 8 -7 15 -15 15 -8 0 -15 -4 -15 -9z"/>
<path d="M10778 1293 c-22 -6 -31 -32 -17 -50 9 -10 9 -19 -1 -38 -11 -20 -11
-27 0 -40 11 -13 11 -21 2 -36 -15 -24 3 -59 31 -59 24 0 42 42 29 66 -7 13
-7 26 -1 37 7 11 6 24 -1 38 -8 15 -8 24 0 34 8 10 8 19 -2 34 -7 12 -15 20
-18 20 -3 -1 -12 -3 -22 -6z m22 -27 c0 -8 -4 -17 -9 -21 -12 -7 -24 12 -16
25 9 15 25 12 25 -4z m0 -76 c0 -5 -4 -10 -10 -10 -5 0 -10 5 -10 10 0 6 5 10
10 10 6 0 10 -4 10 -10z"/>
<path d="M13430 1274 c0 -13 -6 -24 -12 -24 -8 -1 -6 -6 5 -14 9 -7 17 -19 17
-25 0 -7 5 -9 10 -6 6 4 8 10 5 15 -3 4 9 7 26 6 16 -1 33 2 36 7 3 6 1 7 -4
4 -6 -4 -14 0 -17 9 -3 9 -11 12 -18 8 -13 -8 -48 -13 -48 -8 0 2 9 12 20 22
l21 19 -21 6 c-16 4 -20 0 -20 -19z"/>
<path d="M13400 1280 c0 -5 5 -10 10 -10 6 0 10 5 10 10 0 6 -4 10 -10 10 -5
0 -10 -4 -10 -10z"/>
<path d="M13321 1262 c-1 -17 4 -23 16 -20 9 2 18 9 21 17 3 10 0 12 -11 8 -9
-3 -18 -1 -21 6 -2 7 -5 2 -5 -11z"/>
<path d="M13510 1270 c0 -5 5 -10 11 -10 5 0 7 5 4 10 -3 6 -8 10 -11 10 -2 0
-4 -4 -4 -10z"/>
<path d="M13550 1255 c-10 -13 -9 -15 8 -15 15 0 20 5 16 15 -4 8 -7 15 -9 15
-1 0 -8 -7 -15 -15z"/>
<path d="M13346 1233 c-4 -4 -19 -7 -34 -8 -19 0 -28 -6 -30 -20 -2 -15 -1
-17 6 -6 8 11 12 10 22 -5 10 -16 11 -16 6 -1 -3 9 -1 17 4 17 6 0 10 -7 10
-15 0 -8 5 -15 11 -15 7 0 9 9 6 21 -4 14 -2 19 8 15 7 -2 21 2 32 9 10 8 13
15 6 15 -6 0 -15 -5 -19 -11 -5 -8 -8 -8 -13 0 -4 6 -11 8 -15 4z"/>
<path d="M10537 1224 c-8 -8 1 -24 14 -24 5 0 9 7 9 15 0 15 -12 20 -23 9z"/>
<path d="M10675 1220 c3 -5 8 -10 11 -10 2 0 4 5 4 10 0 6 -5 10 -11 10 -5 0
-7 -4 -4 -10z"/>
<path d="M10560 1175 c0 -9 6 -12 15 -9 8 4 12 10 9 15 -8 14 -24 10 -24 -6z"/>
<path d="M13552 1154 c-7 -8 -8 -14 -3 -14 10 0 25 19 20 25 -2 1 -10 -3 -17
-11z"/>
<path d="M12845 1150 c3 -5 8 -10 11 -10 2 0 4 5 4 10 0 6 -5 10 -11 10 -5 0
-7 -4 -4 -10z"/>
<path d="M12028 1115 c3 -21 10 -35 18 -35 16 0 19 16 5 24 -5 3 -7 15 -4 26
4 13 0 20 -9 20 -10 0 -13 -10 -10 -35z"/>
<path d="M13510 1136 c0 -9 5 -16 10 -16 6 0 10 4 10 9 0 6 -4 13 -10 16 -5 3
-10 -1 -10 -9z"/>
<path d="M13430 1131 c0 -11 26 -22 34 -14 12 12 5 23 -14 23 -11 0 -20 -4
-20 -9z"/>
<path d="M13334 1113 c10 -11 37 -12 30 -2 -3 5 -12 9 -21 9 -9 0 -13 -3 -9
-7z"/>
<path d="M10560 1100 c0 -5 4 -10 9 -10 6 0 13 5 16 10 3 6 -1 10 -9 10 -9 0
-16 -4 -16 -10z"/>
<path d="M12350 1100 c0 -5 5 -10 10 -10 6 0 10 5 10 10 0 6 -4 10 -10 10 -5
0 -10 -4 -10 -10z"/>
<path d="M13475 1093 c-5 -12 -9 -14 -12 -5 -6 14 -33 16 -33 2 0 -5 7 -10 15
-10 7 0 18 -7 23 -16 7 -12 11 -13 17 -5 4 7 4 15 1 18 -3 3 -1 12 5 20 7 8 8
13 1 13 -5 0 -13 -8 -17 -17z"/>
<path d="M13411 1084 c0 -11 3 -14 6 -6 3 7 2 16 -1 19 -3 4 -6 -2 -5 -13z"/>
<path d="M13524 1083 c3 -7 -1 -13 -9 -13 -8 0 -15 -4 -15 -10 0 -16 30 -12
36 5 4 10 13 13 25 10 12 -4 19 -2 19 8 0 9 -11 14 -30 14 -22 0 -29 -4 -26
-14z"/>
<path d="M13290 1080 c0 -5 5 -10 10 -10 6 0 10 5 10 10 0 6 -4 10 -10 10 -5
0 -10 -4 -10 -10z"/>
<path d="M13340 1080 c0 -11 22 -18 38 -13 20 8 14 18 -13 19 -14 1 -25 -2
-25 -6z"/>
<path d="M12051 1030 c-1 -26 49 -164 64 -177 12 -12 -5 69 -20 93 -7 11 -20
40 -29 65 -11 33 -15 38 -15 19z"/>
<path d="M10566 1031 c-4 -5 -2 -12 3 -15 5 -4 12 -2 15 3 4 5 2 12 -3 15 -5
4 -12 2 -15 -3z"/>
<path d="M10605 1030 c-3 -5 -1 -10 4 -10 6 0 11 5 11 10 0 6 -2 10 -4 10 -3
0 -8 -4 -11 -10z"/>
<path d="M10570 950 c0 -5 5 -10 10 -10 6 0 10 5 10 10 0 6 -4 10 -10 10 -5 0
-10 -4 -10 -10z"/>
<path d="M11030 929 c0 -5 5 -7 10 -4 6 3 10 8 10 11 0 2 -4 4 -10 4 -5 0 -10
-5 -10 -11z"/>
<path d="M10500 904 c0 -17 22 -14 28 4 2 7 -3 12 -12 12 -9 0 -16 -7 -16 -16z"/>
<path d="M10540 910 c0 -5 7 -10 16 -10 8 0 12 5 9 10 -3 6 -10 10 -16 10 -5
0 -9 -4 -9 -10z"/>
<path d="M10570 876 c0 -9 5 -16 10 -16 6 0 10 4 10 9 0 6 -4 13 -10 16 -5 3
-10 -1 -10 -9z"/>
<path d="M12268 883 c6 -2 18 -2 25 0 6 3 1 5 -13 5 -14 0 -19 -2 -12 -5z"/>
<path d="M11030 854 c0 -8 5 -12 10 -9 6 4 8 11 5 16 -9 14 -15 11 -15 -7z"/>
<path d="M10546 842 c-3 -6 -1 -14 5 -17 15 -10 25 3 12 16 -7 7 -13 7 -17 1z"/>
<path d="M12680 830 c18 -12 30 -13 30 -2 0 4 -10 9 -22 9 -18 2 -20 0 -8 -7z"/>
<path d="M10570 800 c0 -5 5 -10 10 -10 6 0 10 5 10 10 0 6 -4 10 -10 10 -5 0
-10 -4 -10 -10z"/>
<path d="M12647 803 c-11 -11 -8 -33 5 -33 6 0 8 3 5 7 -4 3 -2 12 4 20 11 13
-2 19 -14 6z"/>
<path d="M11030 774 c0 -8 5 -12 10 -9 6 3 10 10 10 16 0 5 -4 9 -10 9 -5 0
-10 -7 -10 -16z"/>
<path d="M12690 771 c-23 -6 -23 -8 -6 -14 13 -5 25 -2 35 8 16 16 11 17 -29
6z"/>
<path d="M10500 753 c0 -10 6 -13 16 -9 9 3 24 6 35 6 35 0 20 16 -16 17 -25
1 -35 -3 -35 -14z"/>
<path d="M12228 743 c7 -3 16 -2 19 1 4 3 -2 6 -13 5 -11 0 -14 -3 -6 -6z"/>
<path d="M12285 730 c3 -5 8 -10 11 -10 2 0 4 5 4 10 0 6 -5 10 -11 10 -5 0
-7 -4 -4 -10z"/>
<path d="M10570 720 c0 -5 5 -10 10 -10 6 0 10 5 10 10 0 6 -4 10 -10 10 -5 0
-10 -4 -10 -10z"/>
<path d="M11030 704 c0 -8 5 -12 10 -9 6 4 8 11 5 16 -9 14 -15 11 -15 -7z"/>
<path d="M12727 713 c-4 -3 -7 -11 -7 -17 0 -6 5 -5 12 2 6 6 9 14 7 17 -3 3
-9 2 -12 -2z"/>
<path d="M12690 700 c0 -5 5 -10 10 -10 6 0 10 5 10 10 0 6 -4 10 -10 10 -5 0
-10 -4 -10 -10z"/>
<path d="M10545 680 c3 -5 10 -10 16 -10 5 0 9 5 9 10 0 6 -7 10 -16 10 -8 0
-12 -4 -9 -10z"/>
<path d="M12667 677 c-7 -20 17 -24 29 -5 4 6 3 8 -4 4 -5 -3 -12 -1 -14 6 -3
8 -7 6 -11 -5z"/>
<path d="M12225 670 c4 -6 11 -8 16 -5 14 9 11 15 -7 15 -8 0 -12 -5 -9 -10z"/>
<path d="M12729 662 c-8 -10 -17 -20 -21 -21 -22 -3 -9 -14 20 -16 17 -2 32 1
32 6 0 5 -6 9 -12 9 -10 0 -10 2 -1 8 7 4 9 13 4 21 -7 10 -11 9 -22 -7z"/>
<path d="M10577 653 c-4 -3 -7 -11 -7 -17 0 -6 5 -5 12 2 6 6 9 14 7 17 -3 3
-9 2 -12 -2z"/>
<path d="M11030 625 c0 -9 6 -12 15 -9 8 4 15 10 15 15 0 5 -7 9 -15 9 -8 0
-15 -7 -15 -15z"/>
<path d="M12190 610 c0 -5 5 -10 11 -10 5 0 7 5 4 10 -3 6 -8 10 -11 10 -2 0
-4 -4 -4 -10z"/>
<path d="M12690 601 c-14 -9 -21 -11 -16 -3 4 7 1 12 -8 12 -9 0 -16 -5 -16
-11 0 -5 -4 -7 -10 -4 -6 3 -7 -1 -4 -10 4 -8 1 -22 -6 -30 -7 -8 -10 -15 -7
-15 3 0 12 -3 21 -6 9 -3 16 -1 16 6 0 6 -4 8 -10 5 -5 -3 -10 -1 -10 4 0 6 8
11 18 11 21 1 77 45 66 53 -5 2 -20 -3 -34 -12z"/>
<path d="M12740 590 c0 -5 -7 -10 -15 -10 -8 0 -15 -4 -15 -10 0 -5 4 -10 9
-10 5 0 11 -8 13 -17 2 -11 8 -3 15 20 6 20 7 37 2 37 -5 0 -9 -4 -9 -10z"/>
<path d="M10570 570 c0 -5 5 -10 10 -10 6 0 10 5 10 10 0 6 -4 10 -10 10 -5 0
-10 -4 -10 -10z"/>
<path d="M12570 550 c0 -5 5 -10 10 -10 6 0 10 5 10 10 0 6 -4 10 -10 10 -5 0
-10 -4 -10 -10z"/>
<path d="M10550 530 c0 -5 5 -10 10 -10 6 0 10 5 10 10 0 6 -4 10 -10 10 -5 0
-10 -4 -10 -10z"/>
<path d="M12682 523 c5 -26 34 -28 34 -3 0 13 -7 20 -19 20 -12 0 -17 -6 -15
-17z"/>
<path d="M12600 521 c0 -5 7 -14 15 -21 16 -14 18 -10 9 14 -6 17 -24 22 -24
7z"/>
<path d="M11015 510 c3 -5 8 -10 11 -10 2 0 4 5 4 10 0 6 -5 10 -11 10 -5 0
-7 -4 -4 -10z"/>
<path d="M12650 499 c0 -5 5 -7 10 -4 6 3 10 8 10 11 0 2 -4 4 -10 4 -5 0 -10
-5 -10 -11z"/>
<path d="M10580 489 c0 -5 5 -7 10 -4 6 3 10 8 10 11 0 2 -4 4 -10 4 -5 0 -10
-5 -10 -11z"/>
<path d="M12671 483 c-1 -6 -4 -20 -7 -30 -5 -17 -5 -17 6 0 6 10 9 23 6 30
-3 9 -5 9 -5 0z"/>
<path d="M12700 470 c20 -13 33 -13 25 0 -3 6 -14 10 -23 10 -15 0 -15 -2 -2
-10z"/>
<path d="M12615 450 c3 -5 8 -10 11 -10 2 0 4 5 4 10 0 6 -5 10 -11 10 -5 0
-7 -4 -4 -10z"/>
<path d="M12680 439 c0 -5 5 -7 10 -4 6 3 10 8 10 11 0 2 -4 4 -10 4 -5 0 -10
-5 -10 -11z"/>
<path d="M10575 420 c-3 -5 -1 -10 4 -10 6 0 11 5 11 10 0 6 -2 10 -4 10 -3 0
-8 -4 -11 -10z"/>
<path d="M12646 406 c3 -9 -4 -12 -28 -9 -30 3 -31 3 -9 -7 25 -11 61 -5 61
10 0 4 -7 10 -14 13 -10 4 -13 1 -10 -7z"/>
<path d="M10550 381 c0 -6 5 -13 10 -16 6 -3 10 1 10 9 0 9 -4 16 -10 16 -5 0
-10 -4 -10 -9z"/>
<path d="M11025 370 c-3 -5 -1 -10 4 -10 6 0 11 5 11 10 0 6 -2 10 -4 10 -3 0
-8 -4 -11 -10z"/>
<path d="M10580 339 c0 -5 5 -7 10 -4 6 3 10 8 10 11 0 2 -4 4 -10 4 -5 0 -10
-5 -10 -11z"/>
<path d="M12049 342 c-32 -6 -33 -64 -2 -77 19 -7 33 11 33 40 0 28 -12 42
-31 37z"/>
<path d="M12646 321 c-4 -7 -5 -15 -2 -18 9 -9 19 4 14 18 -4 11 -6 11 -12 0z"/>
<path d="M11025 290 c-3 -5 -1 -10 4 -10 6 0 11 5 11 10 0 6 -2 10 -4 10 -3 0
-8 -4 -11 -10z"/>
<path d="M12635 280 c-4 -6 5 -10 19 -10 14 0 26 5 26 10 0 6 -9 10 -19 10
-11 0 -23 -4 -26 -10z"/>
<path d="M12580 260 c8 -5 22 -10 30 -10 13 0 13 1 0 10 -8 5 -22 10 -30 10
-13 0 -13 -1 0 -10z"/>
<path d="M11025 210 c3 -5 8 -10 11 -10 2 0 4 5 4 10 0 6 -5 10 -11 10 -5 0
-7 -4 -4 -10z"/>
<path d="M11998 123 c-3 -21 -2 -40 2 -43 12 -9 18 -37 10 -49 -4 -7 -23 -17
-41 -21 -21 -5 36 -8 151 -9 l185 0 -50 18 c-27 10 -72 28 -98 40 -27 11 -59
21 -72 21 -30 0 -55 25 -55 56 0 40 -27 29 -32 -13z"/>
<path d="M11025 130 c3 -5 8 -10 11 -10 2 0 4 5 4 10 0 6 -5 10 -11 10 -5 0
-7 -4 -4 -10z"/>
<path d="M13095 100 c3 -5 8 -10 11 -10 2 0 4 5 4 10 0 6 -5 10 -11 10 -5 0
-7 -4 -4 -10z"/>
<path d="M12555 70 c3 -5 10 -10 16 -10 5 0 9 5 9 10 0 6 -7 10 -16 10 -8 0
-12 -4 -9 -10z"/>
<path d="M13040 40 c0 -5 4 -10 9 -10 6 0 13 5 16 10 3 6 -1 10 -9 10 -9 0
-16 -4 -16 -10z"/>
<path d="M12578 33 c7 -3 16 -2 19 1 4 3 -2 6 -13 5 -11 0 -14 -3 -6 -6z"/>
</g>
</svg>
